<?xml version="1.0" encoding="UTF-8"?>
<svg version="1.1" xmlns="http://www.w3.org/2000/svg" width="967" height="375">
<path d="M0 0 C319.11 0 638.22 0 967 0 C967 123.75 967 247.5 967 375 C647.89 375 328.78 375 0 375 C0 251.25 0 127.5 0 0 Z " fill="#FCFCFD" transform="translate(0,0)"/>
<path d="M0 0 C14.50884547 -0.06793999 29.01758422 -0.12291086 43.52655315 -0.15543652 C50.26458656 -0.17085042 57.00251349 -0.19183394 63.74047852 -0.22631836 C70.25034011 -0.25905895 76.76009145 -0.276884 83.27002907 -0.28463173 C85.74616034 -0.2901489 88.222286 -0.30092222 90.69836998 -0.31719017 C120.52109882 -0.50522652 120.52109882 -0.50522652 134.0625 6.5 C134.72950928 6.84111816 135.39651855 7.18223633 136.08374023 7.53369141 C151.60296884 15.89005633 161.22405087 29.7575956 167.1171875 46.09765625 C168.52131548 51.224777 168.32890943 56.47272583 168.3125 61.75 C168.32861328 62.7709375 168.34472656 63.791875 168.36132812 64.84375 C168.3724414 82.35827188 160.86350973 96.17691806 149.2734375 108.89453125 C145.0496449 113.01598526 140.2178659 115.66156491 135 118.3125 C134.33548828 118.65039551 133.67097656 118.98829102 132.98632812 119.33642578 C124.56342888 123.42571438 115.70440501 125.11333782 106.35546875 125.1418457 C105.05391846 125.14888016 103.75236816 125.15591461 102.41137695 125.16316223 C101.37915512 125.16588607 101.37915512 125.16588607 100.32608032 125.16866493 C98.15633754 125.17588495 95.98681385 125.19158987 93.81713867 125.21000671 C87.65188503 125.26223261 81.48675946 125.31046332 75.32128906 125.32592773 C71.540478 125.33602908 67.76023213 125.36539703 63.97964478 125.40724754 C62.54444661 125.41952155 61.10916858 125.42468538 59.67391968 125.42244911 C57.6640625 125.42008684 55.65422851 125.44450738 53.64453125 125.4699707 C51.93293823 125.47877007 51.93293823 125.47877007 50.18676758 125.48774719 C45.32397106 126.26941109 42.12901361 128.53429175 39.14819336 132.40405273 C37.85717476 135.32291319 37.63134811 137.353409 37.62890625 140.53515625 C37.61456543 141.58630615 37.60022461 142.63745605 37.58544922 143.72045898 C37.57787598 144.82333252 37.57030273 145.92620605 37.5625 147.0625 C37.2180588 160.84113195 35.42086469 171.30204363 26 182 C19.73997777 187.87223324 13.45032792 191.79024033 4.77734375 192.5703125 C3.88136475 192.65297363 2.98538574 192.73563477 2.06225586 192.82080078 C1.04143921 192.90950439 1.04143921 192.90950439 0 193 C-0.04653478 185.20204789 -0.0819759 177.4041289 -0.10362434 169.60607243 C-0.11401947 165.98432031 -0.12809965 162.36266387 -0.15087891 158.7409668 C-0.17276092 155.23963429 -0.18460067 151.73839326 -0.18975449 148.2369976 C-0.1951966 146.26466222 -0.21078449 144.29236315 -0.22659302 142.32008362 C-0.22842658 127.50481972 3.3427674 114.97687953 13.8125 104.03125 C25.02536946 93.61929979 36.65289206 90.39610387 51.74162674 90.48357964 C53.97207486 90.49642792 56.20132432 90.48472689 58.43173218 90.46754456 C62.3635187 90.44107022 66.29500168 90.4352403 70.22686768 90.43664551 C76.52406196 90.4388893 82.82088196 90.42441053 89.11793137 90.38105965 C91.29706018 90.37133693 93.47557878 90.3798739 95.6546936 90.38975525 C105.53150208 90.37406558 115.22247493 89.71695347 123 83 C129.75198151 74.34902369 132.23146004 67.03182952 131 56 C128.88375552 49.08441536 125.08123683 43.90751814 119 40 C114.33517185 37.56200339 109.78041743 35.88430716 104.50117493 35.84178162 C103.57990814 35.8319928 102.65864136 35.82220398 101.7094574 35.81211853 C100.70101273 35.80636307 99.69256805 35.8006076 98.65356445 35.79467773 C97.58998718 35.78477814 96.52640991 35.77487854 95.43060303 35.76467896 C91.90818523 35.73304175 88.38575394 35.70829765 84.86328125 35.68359375 C82.4237584 35.66302615 79.98423912 35.64202973 77.54472351 35.62062073 C71.11842749 35.56538008 64.6920992 35.51597954 58.26574707 35.46777344 C51.71033857 35.417573 45.15497702 35.36187932 38.59960938 35.30664062 C25.73311151 35.19903464 12.86657384 35.09810254 0 35 C0 23.45 0 11.9 0 0 Z " fill="#0352DC" transform="translate(176,75)"/>
<path d="M0 0 C1.46054712 -0.00644329 2.92109301 -0.01317273 4.38163757 -0.02017212 C7.43178291 -0.0320888 10.48181548 -0.03585875 13.53198242 -0.03466797 C17.40839331 -0.03446505 21.28406892 -0.06176403 25.16030598 -0.09621239 C28.17438469 -0.11863156 31.18829058 -0.12250097 34.20244408 -0.12144852 C35.62996135 -0.12378208 37.05748506 -0.13247633 38.48491859 -0.14811325 C52.5289605 -0.28757442 65.49180236 2.64920386 76.109375 12.37109375 C85.33513913 22.14867929 89.29390165 33.28704842 89.19921875 46.5859375 C89.1935791 47.41931641 89.18793945 48.25269531 89.18212891 49.11132812 C88.93397633 61.79904988 85.42338323 73.40673964 76.88671875 83.0859375 C64.92646154 94.09149568 50.01526037 95.64765317 34.515625 95.63671875 C33.14379245 95.6406176 31.77196109 95.64495466 30.40013123 95.64970398 C27.54007026 95.65711763 24.68013286 95.65691022 21.82006836 95.65161133 C18.18470835 95.64581833 14.54985812 95.66276691 10.91458225 95.685956 C8.08584214 95.70080273 5.25722181 95.70155041 2.42844963 95.69844627 C0.4462191 95.69919768 -1.53599307 95.71297456 -3.51817322 95.72712708 C-17.02382074 95.65863345 -30.38493922 92.50701761 -40.52734375 83.03125 C-50.14624456 72.74897672 -53.86516829 59.18764428 -53.56640625 45.3527832 C-52.94289309 32.39540026 -48.17023452 19.01129614 -38.4453125 10.0859375 C-26.57090982 1.17516296 -14.35634134 0.01500614 0 0 Z " fill="#054AD3" transform="translate(827.11328125,122.6640625)"/>
<path d="M0 0 C1.07628662 0.00990463 2.15257324 0.01980927 3.26147461 0.03001404 C6.67574335 0.06898312 10.08671459 0.15677728 13.5 0.24609375 C15.82417209 0.28122997 18.14839493 0.31316491 20.47265625 0.34179688 C26.1496946 0.41868894 31.82428962 0.53935513 37.5 0.68359375 C37.5 4.31359375 37.5 7.94359375 37.5 11.68359375 C36.23816895 11.70341309 34.97633789 11.72323242 33.67626953 11.74365234 C29.00581508 11.8195814 24.3356774 11.90831787 19.66552734 12.00097656 C17.64215334 12.03931896 15.61870994 12.07416246 13.59521484 12.10546875 C10.69082797 12.15100544 7.78692106 12.20901784 4.8828125 12.26953125 C3.97443634 12.28108246 3.06606018 12.29263367 2.13015747 12.30453491 C0.86907669 12.33433945 0.86907669 12.33433945 -0.41748047 12.36474609 C-1.15916473 12.37806976 -1.900849 12.39139343 -2.66500854 12.40512085 C-4.7473364 12.53559104 -4.7473364 12.53559104 -6.5 14.68359375 C-6.06601309 19.7163191 -4.47796759 24.54047675 -3.0625 29.37109375 C-2.5219209 31.24082341 -1.9815743 33.1106203 -1.44140625 34.98046875 C-0.98531982 36.55344727 -0.98531982 36.55344727 -0.52001953 38.15820312 C1.50058995 45.14183188 3.5003517 52.13143938 5.5 59.12109375 C5.71797241 59.88244629 5.93594482 60.64379883 6.16052246 61.42822266 C8.96823799 71.23988002 11.71760738 81.06385693 14.37402344 90.91772461 C16.25495028 97.86253047 18.2366345 104.77608922 20.25 111.68359375 C20.54414795 112.69381592 20.8382959 113.70403809 21.14135742 114.74487305 C21.91785329 117.39413391 22.70592393 120.03955845 23.5 122.68359375 C23.85578125 123.87984375 24.2115625 125.07609375 24.578125 126.30859375 C25.25507511 128.8411271 25.25507511 128.8411271 27.5 129.68359375 C36.8423314 129.62014838 46.18585005 127.92338591 55.40625 126.56640625 C62.24190174 125.56501944 69.08887858 124.65384369 75.9375 123.74609375 C77.82106201 123.49533081 77.82106201 123.49533081 79.74267578 123.23950195 C85.72859564 122.44382831 91.71516932 121.65403373 97.70365906 120.87797546 C99.75386306 120.61191523 101.80384272 120.34418917 103.85375977 120.07592773 C106.42412122 119.74002913 108.99490266 119.40732311 111.56616211 119.07836914 C117.17322424 118.34318755 122.64405723 117.47974762 128.14526367 116.17919922 C133.37653493 115.07816442 138.70134322 114.4922914 144 113.80859375 C145.93709839 113.55577637 145.93709839 113.55577637 147.91333008 113.29785156 C151.38408726 112.84663189 154.85574276 112.4027132 158.32769775 111.96081543 C160.53302415 111.67937932 162.7379731 111.395123 164.94287109 111.11035156 C168.64114829 110.63361165 172.34041906 110.16537079 176.04052734 109.70306396 C177.45339681 109.5257323 178.86600507 109.34630475 180.27832031 109.16461182 C192.57425983 107.58829413 203.84604522 107.36592868 216.125 108.99609375 C217.07761719 109.11404297 218.03023437 109.23199219 219.01171875 109.35351562 C224.83823766 110.10198149 230.6152969 111.0413592 236.39453125 112.08984375 C246.74355525 113.96246188 257.14877815 115.41057262 267.5625 116.87109375 C269.50850113 117.14621861 271.45446492 117.42160778 273.40039062 117.69726562 C278.09983709 118.36241105 282.79976861 119.02401883 287.5 119.68359375 C284.96965476 122.40449196 283.81058219 123.03588608 280.0625 123.18359375 C276.25301697 123.43653237 272.78582677 124.03371671 269.10107422 125.02319336 C262.56947624 126.7044257 255.99459027 128.05159417 249.3768959 129.34720039 C247.26497105 129.7608391 245.15387672 130.17851096 243.04293823 130.59715271 C237.81083406 131.63406261 232.57760304 132.6652279 227.34405518 133.69482422 C222.89327859 134.57046497 218.44312834 135.4491578 213.99383163 136.33228874 C211.92389336 136.74187125 209.85310486 137.14694047 207.78225708 137.55189514 C206.52009369 137.80233078 205.2579303 138.05276642 203.95751953 138.31079102 C202.85231964 138.52824478 201.74711975 138.74569855 200.60842896 138.96974182 C197.48602422 139.68680329 194.53064235 140.65173164 191.5 141.68359375 C189.04480517 142.18233716 186.5798822 142.63446311 184.109375 143.05078125 C182.67178859 143.29708976 181.2342074 143.54342878 179.79663086 143.78979492 C179.05347626 143.9153476 178.31032166 144.04090027 177.54464722 144.17025757 C166.77418261 145.99300447 156.03963771 147.85512885 145.40087891 150.34838867 C139.62776849 151.69354481 133.82095909 152.74831141 127.97631836 153.7331543 C124.18404689 154.36354952 124.18404689 154.36354952 120.4453125 155.24609375 C106.9251832 158.2867654 91.77699625 154.17080982 78.5 151.68359375 C77.11857345 151.43053136 75.73707403 151.17786605 74.35546875 150.92578125 C71.19875104 150.34083036 68.04520604 149.74118633 64.89208984 149.13720703 C60.78994777 148.35931563 56.68377697 147.60324612 52.57788086 146.84545898 C50.2044693 146.40640619 47.83157644 145.96453951 45.45922852 145.51977539 C40.44116302 144.58089785 35.42794768 143.65322209 30.3828125 142.87109375 C29.64869141 142.75185547 28.91457031 142.63261719 28.15820312 142.50976562 C26.28739622 142.20964578 24.41333301 141.93001345 22.5390625 141.65234375 C17.64019719 140.09075172 15.28129597 136.8555377 12.5 132.68359375 C11.96368653 131.03498519 11.48932254 129.36578326 11.0546875 127.6875 C10.7865625 126.66833496 10.5184375 125.64916992 10.2421875 124.59912109 C9.95601562 123.49262207 9.66984375 122.38612305 9.375 121.24609375 C6.8442563 111.65527216 4.23553681 102.09311533 1.5 92.55859375 C1.16693848 91.3977124 0.83387695 90.23683105 0.49072266 89.04077148 C-2.30817419 79.31253395 -5.14249679 69.59465922 -7.984375 59.87890625 C-9.47879635 54.76535448 -10.95073996 49.64592807 -12.38671875 44.515625 C-13.32987279 41.26918951 -14.32094058 38.04593089 -15.33203125 34.8203125 C-15.65751953 33.76005859 -15.98300781 32.69980469 -16.31835938 31.60742188 C-16.96603636 29.49897244 -17.62686853 27.39450513 -18.30273438 25.29492188 C-20.12814472 19.29038634 -21.73256949 13.75587163 -19.5 7.68359375 C-14.08510524 0.58351655 -8.51225345 -0.29842965 0 0 Z " fill="#0E1C2C" transform="translate(64.5,165.31640625)"/>
<path d="M0 0 C1.34677071 0.00946404 1.34677071 0.00946404 2.7207489 0.01911926 C3.40369522 0.02723129 4.08664154 0.03534332 4.7902832 0.04370117 C4.86051125 19.13323087 4.91333877 38.22273418 4.94571972 57.31236649 C4.96115754 66.176957 4.98218774 75.04146702 5.01660156 83.90600586 C5.04659874 91.63659177 5.06588061 99.36711937 5.07254869 107.09776187 C5.07644355 111.18722938 5.08553191 115.2765301 5.10747337 119.36594391 C5.12800199 123.22368917 5.13408434 127.08120066 5.12960625 130.93899536 C5.13042419 132.34656804 5.13629165 133.75414944 5.14789963 135.1616745 C5.26865173 150.57371732 2.27375147 164.76673172 -8.4597168 176.42260742 C-17.23002284 184.54688645 -26.4955529 188.65565401 -38.2097168 190.04370117 C-38.27991265 170.15459685 -38.3327567 150.26551779 -38.36515331 130.37631512 C-38.38059791 121.14064572 -38.40164124 111.90505347 -38.43603516 102.66943359 C-38.4660114 94.61620508 -38.48530928 86.56303246 -38.49198228 78.50974971 C-38.49588065 74.24873069 -38.50499176 69.98787152 -38.52690697 65.72690392 C-38.54740232 61.70911292 -38.55352448 57.69154628 -38.54903984 53.67370796 C-38.54985925 52.20605115 -38.55574678 50.73838615 -38.56733322 49.27077484 C-38.6787746 34.41523982 -36.03575975 21.80772036 -25.7878418 10.60229492 C-18.76102578 3.66244445 -9.93065214 -0.09059613 0 0 Z " fill="#1B2734" transform="translate(154.209716796875,86.956298828125)"/>
<path d="M0 0 C13.27406188 -0.06960734 26.54808011 -0.1228659 39.82228756 -0.15543652 C45.98648986 -0.17107125 52.15056699 -0.19226973 58.31469727 -0.22631836 C64.26693001 -0.2589896 70.21904259 -0.2768695 76.17135811 -0.28463173 C78.43867445 -0.29016127 80.70598445 -0.30095908 82.97324944 -0.31719017 C86.15670702 -0.33906731 89.33967232 -0.34196258 92.52319336 -0.34057617 C93.91934624 -0.35675491 93.91934624 -0.35675491 95.34370422 -0.3732605 C105.49634208 -0.32562912 114.46443572 2.83051512 121.94921875 9.8203125 C128.41576846 16.73423357 130.5644867 23.55648277 130.4375 32.9375 C130.42920166 33.72946777 130.42090332 34.52143555 130.41235352 35.33740234 C130.14654117 44.51880685 127.17524168 50.56645188 120.91796875 57.27734375 C115.74854281 61.92035157 109.66406073 63.57198699 103 65 C106.63085986 68.67105388 110.33579662 72.24278916 114.125 75.75 C114.68687012 76.27078125 115.24874023 76.7915625 115.82763672 77.328125 C120.31571954 81.45114845 124.9591107 85.30327959 129.7578125 89.0625 C131.88901838 90.90409951 133.35772991 92.73089576 135 95 C104.67579726 97.18785294 104.67579726 97.18785294 97.57617188 91.06274414 C95.18380422 88.49403584 93.09088477 85.82340563 91 83 C89.06282787 81.18128803 87.06453355 79.51721561 85.00366211 77.84326172 C83 76 83 76 81.3762207 73.74511719 C77.20333556 68.64091972 73.78531523 66.8322794 67.31469727 66.17651367 C60.33534333 65.77817932 53.36212679 65.85393086 46.375 65.9375 C43.91535608 65.93442261 41.4557137 65.92730129 38.99609375 65.91601562 C32.99501774 65.88971286 27.00298769 65.94681974 21 66 C21 75.57 21 85.14 21 95 C14.07 95 7.14 95 0 95 C0 79.49 0 63.98 0 48 C6.75339844 47.96261719 13.50679687 47.92523438 20.46484375 47.88671875 C24.75328032 47.85642876 29.0416759 47.82527409 33.33007812 47.79101562 C40.13091933 47.73676822 46.93167946 47.68565498 53.73266602 47.65356445 C59.2181965 47.62748013 64.70345349 47.58704114 70.18881416 47.53681374 C72.277447 47.52017974 74.36612711 47.50864394 76.45481682 47.50238609 C79.38935628 47.49270734 82.32320147 47.46460274 85.25756836 47.43237305 C86.11353104 47.43380814 86.96949371 47.43524323 87.85139465 47.4367218 C94.74309361 47.33026946 101.48157311 46.45700184 106.5625 41.5 C108.87650308 35.86590554 108.97313621 30.04858602 107.1171875 24.234375 C106.17858554 21.81507728 106.17858554 21.81507728 103.75 20.8125 C102.8425 20.544375 101.935 20.27625 101 20 C100.14719452 19.65981842 99.29438904 19.31963684 98.41574097 18.96914673 C94.06903552 17.73585784 90.09376637 17.69235673 85.59814453 17.68115234 C84.67067917 17.67110672 83.74321381 17.6610611 82.78764343 17.65071106 C79.73603916 17.6199333 76.68452241 17.60285887 73.6328125 17.5859375 C71.51145681 17.56722152 69.39010852 17.54764778 67.26876831 17.5272522 C61.69576388 17.47597057 56.12273533 17.43632351 50.54962158 17.39910889 C44.85854137 17.35904443 39.16756118 17.3079632 33.4765625 17.2578125 C22.31777864 17.16110016 11.15893824 17.07668028 0 17 C0 11.39 0 5.78 0 0 Z " fill="#044ED8" transform="translate(623,123)"/>
<path d="M0 0 C13.36987816 -0.09288843 26.73967889 -0.16386073 40.10981464 -0.20724869 C46.31885023 -0.22807808 52.5276642 -0.25631105 58.73657227 -0.30175781 C64.73421072 -0.3453809 70.73163669 -0.36917204 76.72942162 -0.37950897 C79.01184621 -0.3868708 81.29425984 -0.40124644 83.5765934 -0.42292023 C86.78609516 -0.45217255 89.99473101 -0.45594684 93.2043457 -0.45410156 C94.13727448 -0.46848267 95.07020325 -0.48286377 96.03140259 -0.49768066 C105.88484417 -0.4368167 114.45507604 2.69032295 122.0546875 8.99609375 C129.36377644 16.52533597 130.3125 24.69561992 130.3125 34.6652832 C130.16406517 43.56715581 128.40792528 49.67039276 122.375 56.375 C118.08301477 60.32458195 113.57507278 62.42052637 108 64 C106.82759766 64.34224609 105.65519531 64.68449219 104.44726562 65.03710938 C96.79288805 66.71014756 88.85215438 66.24477005 81.05859375 66.1953125 C79.32267928 66.19157676 77.58676268 66.18873244 75.85084534 66.18673706 C71.3085638 66.17914474 66.7664126 66.15953463 62.22418213 66.1373291 C57.57850914 66.11677528 52.93281484 66.10771505 48.28710938 66.09765625 C39.19134012 66.07628409 30.09570135 66.04113841 21 66 C21 75.57 21 85.14 21 95 C14.07 95 7.14 95 0 95 C0 79.49 0 63.98 0 48 C6.8371875 47.96261719 13.674375 47.92523438 20.71875 47.88671875 C25.0573166 47.856433 29.39584247 47.82528111 33.734375 47.79101562 C40.61651532 47.73674317 47.49857509 47.68563087 54.38085938 47.65356445 C59.93122259 47.62750285 65.48131447 47.58707975 71.0315094 47.53681374 C73.14608885 47.52016443 75.2607152 47.50863813 77.37535095 47.50238609 C80.3436204 47.49272411 83.31119868 47.46463914 86.27929688 47.43237305 C87.58265991 47.43452568 87.58265991 47.43452568 88.91235352 47.4367218 C95.617384 47.33404329 101.56695364 46.43304636 106.5 41.5 C108.61269966 36.57036746 108.88024082 32.28144493 108 27 C106.58194842 23.61849239 104.4557792 21.66819448 101.07145786 20.11480999 C95.39040431 18.15763386 90.33563081 17.55747965 84.34936523 17.56762695 C82.97214043 17.55233948 82.97214043 17.55233948 81.5670929 17.53674316 C78.56419624 17.50680369 75.56161956 17.49737648 72.55859375 17.48828125 C70.46394303 17.47142044 68.36930234 17.45326832 66.27467346 17.43388367 C60.78554418 17.38652997 55.29645559 17.35662605 49.80718994 17.33044434 C44.19624805 17.30056484 38.58544613 17.25405996 32.97460938 17.20898438 C21.98313033 17.12311764 10.99166545 17.05723673 0 17 C0 11.39 0 5.78 0 0 Z " fill="#0552DD" transform="translate(476,123)"/>
<path d="M0 0 C1.07759583 -0.00570007 2.15519165 -0.01140015 3.26544189 -0.01727295 C5.54153468 -0.02669853 7.81764097 -0.0332472 10.09375 -0.03710938 C13.55232909 -0.0468027 17.01031047 -0.07784507 20.46875 -0.109375 C22.6874965 -0.11590721 24.90624722 -0.12115682 27.125 -0.125 C28.14825378 -0.1373468 29.17150757 -0.1496936 30.22576904 -0.16241455 C40.65426048 -0.13050873 49.05893943 2.08137156 56.828125 9.203125 C64.14058862 17.28532164 64.343172 25.66554188 63.828125 36.203125 C63.00298915 43.95399123 58.87457025 50.07434339 53.515625 55.578125 C45.65119165 60.33336377 37.8091477 60.65929047 28.796875 60.63671875 C27.56578003 60.6419606 26.33468506 60.64720245 25.06628418 60.65260315 C22.47437288 60.65900057 19.88243245 60.65771608 17.29052734 60.64916992 C13.34029191 60.64065124 9.39149951 60.66947087 5.44140625 60.70117188 C2.91406293 60.70278396 0.38671707 60.70220623 -2.140625 60.69921875 C-3.31274536 60.71045273 -4.48486572 60.72168671 -5.69250488 60.73326111 C-14.37322918 60.65999361 -20.20376769 58.7976567 -27.421875 54.078125 C-34.5809854 46.59360049 -36.44564919 38.03221094 -36.32421875 27.98046875 C-35.84287445 19.20519182 -32.70337526 12.28703955 -26.234375 6.390625 C-18.34068562 -0.13151761 -9.84118068 0.04055247 0 0 Z " fill="#FBFCFD" transform="translate(831.171875,139.796875)"/>
<path d="M0 0 C0.375 2.1875 0.375 2.1875 0 5 C-4.03807713 8.95331989 -7.09916417 10.72126089 -12.6875 12 C-13.35394531 12.15533203 -14.02039063 12.31066406 -14.70703125 12.47070312 C-22.77871087 14.28897018 -30.945218 15.68155292 -39.08691406 17.14453125 C-45.10726447 18.23640009 -51.02640731 19.42201185 -56.9375 21 C-65.54766803 23.28243678 -74.29420377 24.7395963 -83.06811523 26.25 C-88.74261008 27.22796428 -94.37969697 28.25046793 -99.9909668 29.54443359 C-104.45165295 30.55593443 -108.9571415 31.36045071 -113.44921875 32.21875 C-116.89636494 32.90246207 -116.89636494 32.90246207 -119.71411133 33.9519043 C-123.47447748 35.15134347 -127.2455064 35.87657275 -131.125 36.55078125 C-132.72445846 36.83774322 -134.32390461 37.12477382 -135.92333984 37.41186523 C-137.61555537 37.71210232 -139.30777551 38.01231342 -141 38.3125 C-158.46343433 41.41340243 -158.46343433 41.41340243 -175.69921875 45.57739258 C-188.98784435 48.95549203 -202.27240775 46.82721777 -215.4375 44.125 C-216.82981328 43.8515128 -218.22239219 43.57937439 -219.61523438 43.30859375 C-225.79197052 42.0987772 -231.9486755 40.8111545 -238.0871582 39.42041016 C-241.16873447 38.743132 -244.2707509 38.18760378 -247.375 37.625 C-249.4842834 37.23094403 -251.59281225 36.83304999 -253.70117188 36.43408203 C-255.29573613 36.1329844 -256.8908285 35.83467539 -258.48632812 35.53857422 C-261.03550455 35.06072517 -263.58029152 34.56354347 -266.125 34.0625 C-266.91825684 33.91699707 -267.71151367 33.77149414 -268.52880859 33.62158203 C-273.44455003 32.63172998 -277.08868773 31.32283216 -281 28 C-282.16064453 25.36352539 -282.16064453 25.36352539 -283 23 C-270.29180571 24.82230711 -257.6884664 27.21384014 -245.06542969 29.54101562 C-230.36233751 32.25773795 -230.36233751 32.25773795 -215.59521484 34.59326172 C-212.91439743 35.01341617 -210.27747675 35.55451679 -207.625 36.125 C-194.56574356 38.42627298 -183.26304615 36.45809223 -170.55859375 33.4921875 C-163.26429323 31.79656782 -155.9187553 30.396484 -148.5625 29 C-136.31630352 26.66105688 -124.10284647 24.19136136 -111.90478516 21.61328125 C-95.17910927 18.08202408 -78.43440289 14.65737603 -61.66503906 11.34033203 C-57.94299548 10.60370917 -54.22140836 9.86482518 -50.5 9.125 C-48.60374878 8.74879517 -48.60374878 8.74879517 -46.66918945 8.36499023 C-40.13203672 7.05904794 -33.6082748 5.71280503 -27.09765625 4.28125 C-25.83179688 4.00394043 -24.5659375 3.72663086 -23.26171875 3.44091797 C-20.85529187 2.91014456 -18.45024882 2.37304421 -16.046875 1.82861328 C-10.58257043 0.62215576 -5.59998104 -0.33841612 0 0 Z " fill="#0C55DE" transform="translate(369,292)"/>
<path d="M0 0 C0 25.41 0 50.82 0 77 C-8.91 77 -17.82 77 -27 77 C-27.08411798 69.46910434 -27.16422564 61.93993147 -27.20700073 54.40897369 C-27.2280357 50.90126741 -27.25609661 47.39395411 -27.30175781 43.88647461 C-27.35393628 39.85266534 -27.37301886 35.81926572 -27.390625 31.78515625 C-27.41127014 30.54105484 -27.43191528 29.29695343 -27.45318604 28.01515198 C-27.45530969 19.71698832 -26.45060013 13.18402729 -21.0703125 6.66015625 C-13.72763354 0.62972313 -9.97630789 0 0 0 Z " fill="#1B2634" transform="translate(444,141)"/>
<path d="M0 0 C4.53503535 2.97422013 8.03204167 7.30346781 10.04296875 12.33984375 C10.93150926 19.41075561 10.97570301 25.77523696 6.59765625 31.625 C1.11507465 37.67237015 -3.42181371 40.81073504 -11.70703125 41.77734375 C-17.65503029 41.60609618 -23.23175688 38.76654494 -27.6328125 34.84765625 C-32.82493798 28.93567857 -33.4741283 23.17575481 -33.328125 15.56640625 C-32.66073219 9.76360142 -30.24710296 6.3715027 -25.94921875 2.55859375 C-17.87008319 -3.76161562 -9.30024802 -4.62543309 0 0 Z " fill="#0567F2" transform="translate(148.95703125,37.66015625)"/>
<path d="M0 0 C4.29 0 8.58 0 13 0 C10.56675047 2.43324953 9.72199896 2.29275548 6.375 2.5 C1.69024015 2.88421771 -2.47289144 3.73834679 -7 5 C-8.258125 5.350625 -9.51625 5.70125 -10.8125 6.0625 C-12.88592988 6.67233232 -14.94965704 7.31655235 -17 8 C-17.33 8.99 -17.66 9.98 -18 11 C-17.06317383 10.82871582 -16.12634766 10.65743164 -15.16113281 10.48095703 C-11.62761185 9.83516457 -8.09386673 9.19060573 -4.56005859 8.54638672 C-3.04144414 8.26937039 -1.52288767 7.99203599 -0.00439453 7.71435547 C4.99541052 6.80019969 9.99688344 5.8958481 15 5 C16.16692383 4.78972168 17.33384766 4.57944336 18.53613281 4.36279297 C23.48008846 3.4994775 28.21204245 2.74242217 33.25 2.875 C34.61898437 2.90207031 34.61898437 2.90207031 36.015625 2.9296875 C36.99789062 2.96449219 36.99789062 2.96449219 38 3 C35.06129478 5.93870522 31.51618066 6.09469914 27.56225586 6.84765625 C26.68884552 7.02029999 25.81543518 7.19294373 24.91555786 7.37081909 C22.01669322 7.94197623 19.11582464 8.50219957 16.21484375 9.0625 C14.19888213 9.45771011 12.18306045 9.8536347 10.16737366 10.25024414 C4.84725786 11.29519053 -0.4745866 12.33105239 -5.796875 13.36486816 C-12.23563413 14.61714327 -18.67243983 15.87941039 -25.10941982 17.14079285 C-30.12481044 18.12348743 -35.14050585 19.10451675 -40.15724182 20.08032227 C-41.08631851 20.26144562 -42.0153952 20.44256897 -42.97262573 20.62918091 C-44.69071942 20.96408659 -46.40898115 21.2981321 -48.12745667 21.631073 C-52.78623164 22.54046984 -57.40976031 23.53676112 -62.02403927 24.65187073 C-64.89151151 25.15706853 -67.22575071 24.8119754 -70 24 C-70.66 23.34 -71.32 22.68 -72 22 C-67.67435795 20.41744803 -63.571279 19.54855348 -59 19 C-59 17.68 -59 16.36 -59 15 C-60.00160156 15.144375 -61.00320312 15.28875 -62.03515625 15.4375 C-63.37756922 15.62525007 -64.72001915 15.81273594 -66.0625 16 C-66.71927734 16.09539062 -67.37605469 16.19078125 -68.05273438 16.2890625 C-79.31503378 17.84248311 -79.31503378 17.84248311 -83 16 C-83 15.34 -83 14.68 -83 14 C-73.93056564 12.1272207 -65.16347787 10.66441252 -55.890625 10.30859375 C-53.10686747 10.2001629 -53.10686747 10.2001629 -51.32324219 9.07495117 C-47.9940277 7.53454224 -44.53085102 7.07072973 -40.9375 6.4921875 C-40.15036621 6.36184113 -39.36323242 6.23149475 -38.55224609 6.09719849 C-36.88514858 5.8233376 -35.21748576 5.55289896 -33.54931641 5.28564453 C-31.03468532 4.88058712 -28.52330797 4.45861326 -26.01171875 4.03515625 C-17.28236856 2.59954468 -8.88048171 1.54135237 0 2 C0 1.34 0 0.68 0 0 Z " fill="#172434" transform="translate(240,290)"/>
<path d="M0 0 C4.7917749 1.65534042 7.21070254 3.80443174 10 8 C10.89157247 13.25720316 11.25883822 19.22856565 9.01171875 24.17578125 C6.06593095 27.85117593 2.8114431 29.78303049 -1.8046875 30.3359375 C-6.5573148 30.3964035 -10.11406485 30.39550676 -14.5 28.4375 C-18.54854955 24.49016419 -20.72948927 21.16408583 -21.4375 15.5 C-20.76605901 10.12847209 -19.45137095 6.34517308 -15.4375 2.625 C-10.41921126 -0.72052583 -5.9245189 -0.46088902 0 0 Z " fill="#152231" transform="translate(658,237)"/>
<path d="M0 0 C3.89433714 2.02571677 6.35399513 4.16159683 7.83984375 8.26953125 C8.51073918 14.4493286 8.6351856 20.08256406 4.83984375 25.26953125 C1.0730063 28.93978312 -2.06447797 29.58010083 -7.16015625 29.76953125 C-12.27886756 29.57314505 -15.37930616 28.95586009 -19.16015625 25.26953125 C-22.59298505 20.66231364 -23.83686002 17.17042505 -23.54296875 11.41015625 C-22.69942247 6.69318319 -19.99734891 4.04546591 -16.59765625 0.89453125 C-11.2455132 -1.63557274 -5.65689366 -1.91290979 0 0 Z " fill="#182536" transform="translate(742.16015625,237.73046875)"/>
<path d="M0 0 C12.70819429 1.82230711 25.3115336 4.21384014 37.93457031 6.54101562 C47.74675846 8.34774595 57.54557745 10.12972499 67.41552734 11.59277344 C70.76302157 12.12022671 74.01879416 12.82871947 77.3125 13.625 C78.40175781 13.88539063 79.49101562 14.14578125 80.61328125 14.4140625 C81.40089844 14.60742188 82.18851562 14.80078125 83 15 C83 15.99 83 16.98 83 18 C86.00950123 19.61725534 88.97103608 20.67582623 92.25 21.625 C93.14203125 21.88539063 94.0340625 22.14578125 94.953125 22.4140625 C95.62859375 22.60742188 96.3040625 22.80078125 97 23 C97 23.33 97 23.66 97 24 C86.91011818 24.44877644 77.57845093 23.10491437 67.75 21.125 C66.34395959 20.85178374 64.9377096 20.57964383 63.53125 20.30859375 C57.30296633 19.10015363 51.09317343 17.82560055 44.90625 16.42041016 C41.82723011 15.74135377 38.72715329 15.18722394 35.625 14.625 C33.5157166 14.23094403 31.40718775 13.83304999 29.29882812 13.43408203 C27.70426387 13.1329844 26.1091715 12.83467539 24.51367188 12.53857422 C21.96449545 12.06072517 19.41970848 11.56354347 16.875 11.0625 C16.08174316 10.91699707 15.28848633 10.77149414 14.47119141 10.62158203 C9.55544997 9.63172998 5.91131227 8.32283216 2 5 C0.83935547 2.36352539 0.83935547 2.36352539 0 0 Z " fill="#122032" transform="translate(86,315)"/>
<path d="M0 0 C3.9980573 1.92272985 6.31074766 4.95031916 8 9 C8.72936873 13.58823818 8.48708468 17.72832233 6.3125 21.875 C2.91880353 26.46107631 0.09182928 27.98192799 -5.4375 28.9375 C-8.95014267 29.22341278 -10.00149817 28.99926505 -13.3125 27.375 C-14.199375 26.59125 -15.08625 25.8075 -16 25 C-16.78375 24.319375 -17.5675 23.63875 -18.375 22.9375 C-20.88687962 18.39679453 -20.74446918 14.06983511 -20 9 C-15.506917 0.01383401 -9.51367974 -1.3736329 0 0 Z " fill="#066CF7" transform="translate(437,107)"/>
<path d="M0 0 C5 0 5 0 6.7734375 1.43359375 C7.30195312 2.09488281 7.83046875 2.75617188 8.375 3.4375 C8.96152344 4.15808594 9.54804687 4.87867188 10.15234375 5.62109375 C10.76207031 6.40613281 11.37179687 7.19117188 12 8 C12.99193359 9.25490234 12.99193359 9.25490234 14.00390625 10.53515625 C15.68486891 12.67795915 17.34437947 14.83755685 19 17 C19.33 11.39 19.66 5.78 20 0 C21.98 0 23.96 0 26 0 C26 9.9 26 19.8 26 30 C21 30 21 30 19.25488281 28.45532227 C18.74280273 27.74947998 18.23072266 27.0436377 17.703125 26.31640625 C17.13722656 25.55392578 16.57132813 24.79144531 15.98828125 24.00585938 C15.12783203 22.79639648 15.12783203 22.79639648 14.25 21.5625 C13.08856205 19.98045378 11.92710475 18.39842177 10.765625 16.81640625 C10.25805664 16.10943604 9.75048828 15.40246582 9.22753906 14.67407227 C8.10527009 13.05456978 8.10527009 13.05456978 7 12 C6.67 17.94 6.34 23.88 6 30 C4.02 30 2.04 30 0 30 C0 20.1 0 10.2 0 0 Z " fill="#1C2634" transform="translate(594,237)"/>
<path d="M0 0 C7.59 0 15.18 0 23 0 C23 1.65 23 3.3 23 5 C17.39 5 11.78 5 6 5 C6 7.31 6 9.62 6 12 C11.28 12 16.56 12 22 12 C22 13.98 22 15.96 22 18 C16.72 18 11.44 18 6 18 C6 20.31 6 22.62 6 25 C11.61 25 17.22 25 23 25 C23 26.65 23 28.3 23 30 C15.41 30 7.82 30 0 30 C0 20.1 0 10.2 0 0 Z " fill="#222E3C" transform="translate(837,237)"/>
<path d="M0 0 C1.98 0 3.96 0 6 0 C6 3.96 6 7.92 6 12 C10.62 12 15.24 12 20 12 C20 8.04 20 4.08 20 0 C21.98 0 23.96 0 26 0 C26 9.9 26 19.8 26 30 C24.02 30 22.04 30 20 30 C20 26.04 20 22.08 20 18 C15.38 18 10.76 18 6 18 C6 21.96 6 25.92 6 30 C4.02 30 2.04 30 0 30 C0 20.1 0 10.2 0 0 Z " fill="#2D3744" transform="translate(549,237)"/>
<path d="M0 0 C0.763125 0.495 1.52625 0.99 2.3125 1.5 C1.6525 2.82 0.9925 4.14 0.3125 5.5 C-0.326875 5.335 -0.96625 5.17 -1.625 5 C-5.6976407 4.33507907 -9.58612893 3.83429238 -13.6875 4.5 C-17.02488205 7.18618556 -17.59552878 8.76423028 -18.125 13 C-17.66668775 16.66649798 -16.91519177 18.58686461 -14.6875 21.5 C-12.04291621 22.82229189 -10.00988699 22.59677194 -7.0625 22.5625 C-6.05960938 22.55347656 -5.05671875 22.54445313 -4.0234375 22.53515625 C-2.86714844 22.51775391 -2.86714844 22.51775391 -1.6875 22.5 C-1.6875 20.52 -1.6875 18.54 -1.6875 16.5 C-3.9975 16.5 -6.3075 16.5 -8.6875 16.5 C-8.6875 14.85 -8.6875 13.2 -8.6875 11.5 C-4.7275 11.5 -0.7675 11.5 3.3125 11.5 C3.3125 16.12 3.3125 20.74 3.3125 25.5 C-3.33003344 28.82126672 -7.4543068 29.37434203 -14.6875 28.5 C-19.16088519 26.50295304 -21.75613333 23.90309153 -23.984375 19.484375 C-25.31678805 15.72400928 -25.58154339 12.39642792 -24.6875 8.5 C-19.36619309 -1.5246556 -10.59123519 -4.30829906 0 0 Z " fill="#121D2D" transform="translate(790.6875,238.5)"/>
<path d="M0 0 C7.26 0 14.52 0 22 0 C22 1.65 22 3.3 22 5 C16.39 5 10.78 5 5 5 C5 7.31 5 9.62 5 12 C10.28 12 15.56 12 21 12 C21 13.98 21 15.96 21 18 C15.72 18 10.44 18 5 18 C5 20.31 5 22.62 5 25 C10.61 25 16.22 25 22 25 C22 26.65 22 28.3 22 30 C14.74 30 7.48 30 0 30 C0 20.1 0 10.2 0 0 Z " fill="#172432" transform="translate(466,237)"/>
<path d="M0 0 C3.6875 1.5 3.6875 1.5 6 3 C4.68 4.32 3.36 5.64 2 7 C1.01 6.67 0.02 6.34 -1 6 C-2.56118428 5.93259135 -4.1250252 5.91485544 -5.6875 5.9375 C-6.49574219 5.94652344 -7.30398438 5.95554688 -8.13671875 5.96484375 C-8.75160156 5.97644531 -9.36648438 5.98804688 -10 6 C-10 7.32 -10 8.64 -10 10 C-9.10796875 10.25394531 -8.2159375 10.50789062 -7.296875 10.76953125 C-5.54117188 11.28580078 -5.54117188 11.28580078 -3.75 11.8125 C-2.00976562 12.31716797 -2.00976562 12.31716797 -0.234375 12.83203125 C2.77074053 13.91721186 4.75100092 14.75100092 7 17 C7.8719346 23.86648501 7.8719346 23.86648501 5.125 27.4375 C0.00364499 31.20320222 -5.8532927 30.57369268 -12 30 C-14.58550279 28.94459868 -15.91715784 27.90431283 -18 26 C-17.01 24.68 -16.02 23.36 -15 22 C-14.319375 22.309375 -13.63875 22.61875 -12.9375 22.9375 C-8.46928182 24.55366402 -4.56898913 25.52299638 0 24 C0.33 22.35 0.66 20.7 1 19 C0.11957031 18.84144531 -0.76085937 18.68289062 -1.66796875 18.51953125 C-12.34881881 16.37387769 -12.34881881 16.37387769 -15.3125 13.6875 C-17 11 -17 11 -17.6875 8 C-16.92255276 4.66204839 -15.81744908 2.95702901 -13.04296875 0.9140625 C-8.85305662 -0.9605827 -4.46263433 -0.63468577 0 0 Z " fill="#131E2C" transform="translate(894,237)"/>
<path d="M0 0 C-0.66 1.98 -1.32 3.96 -2 6 C-2.71841064 6.10546143 -3.43682129 6.21092285 -4.17700195 6.31958008 C-11.27372839 7.36266699 -18.36903604 8.41494472 -25.46337891 9.47412109 C-28.61414312 9.9426249 -31.76590342 10.40363913 -34.91796875 10.86328125 C-36.61205766 11.11666322 -38.30607393 11.37053166 -40 11.625 C-40.77512939 11.73561768 -41.55025879 11.84623535 -42.34887695 11.96020508 C-45.87502524 12.49927235 -47.9827439 12.98849593 -51 15 C-53.0847168 15.31884766 -53.0847168 15.31884766 -55.44921875 15.4140625 C-56.72055664 15.47207031 -56.72055664 15.47207031 -58.01757812 15.53125 C-59.33918945 15.57765625 -59.33918945 15.57765625 -60.6875 15.625 C-61.58017578 15.66367187 -62.47285156 15.70234375 -63.39257812 15.7421875 C-65.5948462 15.83640218 -67.79710722 15.92201588 -70 16 C-70.28617188 15.35546875 -70.57234375 14.7109375 -70.8671875 14.046875 C-71.81418662 11.80115872 -71.81418662 11.80115872 -74.125 11.25 C-74.74375 11.1675 -75.3625 11.085 -76 11 C-74.71029297 10.81824219 -74.71029297 10.81824219 -73.39453125 10.6328125 C-61.54019242 8.95226283 -49.72884745 7.13875604 -37.9375 5.0625 C-30.28149882 3.71971653 -22.62096683 2.42638507 -14.9375 1.25 C-14.12337646 1.12246338 -13.30925293 0.99492676 -12.47045898 0.86352539 C-8.27039794 0.23318448 -4.26221197 -0.13639078 0 0 Z " fill="#121F2D" transform="translate(239,286)"/>
<path d="M0 0 C0.94875 0.00902344 1.8975 0.01804687 2.875 0.02734375 C3.57625 0.03894531 4.2775 0.05054688 5 0.0625 C2.06129478 3.00120522 -1.48381934 3.15719914 -5.43774414 3.91015625 C-6.31115448 4.08279999 -7.18456482 4.25544373 -8.08444214 4.43331909 C-10.98330678 5.00447623 -13.88417536 5.56469957 -16.78515625 6.125 C-18.80111787 6.52021011 -20.81693955 6.9161347 -22.83262634 7.31274414 C-28.15274214 8.35769053 -33.4745866 9.39355239 -38.796875 10.42736816 C-45.23563413 11.67964327 -51.67243983 12.94191039 -58.10941982 14.20329285 C-63.12481044 15.18598743 -68.14050585 16.16701675 -73.15724182 17.14282227 C-74.08631851 17.32394562 -75.0153952 17.50506897 -75.97262573 17.69168091 C-77.69071942 18.02658659 -79.40898115 18.3606321 -81.12745667 18.693573 C-85.78623164 19.60296984 -90.40976031 20.59926112 -95.02403927 21.71437073 C-97.89151151 22.21956853 -100.22575071 21.8744754 -103 21.0625 C-103.66 20.4025 -104.32 19.7425 -105 19.0625 C-98.7125397 16.62729 -92.25250767 16.04234202 -85.61132812 15.20703125 C-84.70705078 15.08714844 -83.80277344 14.96726562 -82.87109375 14.84375 C-82.05568115 14.74126953 -81.24026855 14.63878906 -80.40014648 14.53320312 C-77.97376682 14.14101441 -77.97376682 14.14101441 -75.73120117 13.11279297 C-72.03476601 11.69131589 -68.3269149 11.11946409 -64.4296875 10.4765625 C-63.59398224 10.33350677 -62.75827698 10.19045105 -61.89724731 10.0430603 C-59.22402421 9.5859688 -56.54966071 9.13609663 -53.875 8.6875 C-50.39243803 8.10092236 -46.91062518 7.51020558 -43.4296875 6.9140625 C-42.56760681 6.76656555 -41.70552612 6.6190686 -40.81732178 6.46710205 C-33.97295522 5.27606101 -27.17895001 3.89353796 -20.39694214 2.38833618 C-13.61832036 0.90294549 -6.96515113 -0.08706439 0 0 Z " fill="#DFE1E3" transform="translate(273,292.9375)"/>
<path d="M0 0 C0.69287109 0.00451172 1.38574219 0.00902344 2.09960938 0.01367188 C3.79561068 0.02536844 5.49156703 0.04330076 7.1875 0.0625 C7.1875 0.7225 7.1875 1.3825 7.1875 2.0625 C5.82322876 2.25827637 5.82322876 2.25827637 4.43139648 2.45800781 C-12.95784673 4.96176067 -30.30129707 7.57979717 -47.59716797 10.67333984 C-51.41967325 11.34482689 -55.2539423 11.92572878 -59.09375 12.48828125 C-62.37167177 12.99443094 -65.63762848 13.54311996 -68.90625 14.10546875 C-70.01822754 14.29302734 -71.13020508 14.48058594 -72.27587891 14.67382812 C-74.50874511 15.05092589 -76.74027705 15.43603289 -78.97021484 15.83007812 C-84.51945236 16.75652957 -89.32131253 17.50795186 -94.8125 16.0625 C-95.1425 15.4025 -95.4725 14.7425 -95.8125 14.0625 C-88.01229336 12.43041571 -80.17948925 11.07987351 -72.3125 9.8125 C-71.66951965 9.70844849 -71.02653931 9.60439697 -70.36407471 9.49719238 C-55.80930283 7.14866483 -41.21493375 5.07780014 -26.61523438 3.03027344 C-25.73553986 2.90652344 -24.85584534 2.78277344 -23.94949341 2.65527344 C-22.29675563 2.42307992 -20.64383229 2.19220183 -18.99069214 1.96289062 C-15.97989143 1.5402475 -12.99114833 1.09892103 -10.01147461 0.49145508 C-6.6888355 -0.1566938 -3.37000555 -0.04192351 0 0 Z " fill="#DFE0E3" transform="translate(239.8125,282.9375)"/>
<path d="M0 0 C0.763125 0.495 1.52625 0.99 2.3125 1.5 C1.6525 2.82 0.9925 4.14 0.3125 5.5 C-2.6875 5.5 -2.6875 5.5 -5.6875 4.5 C-11.19144195 4.00123639 -11.19144195 4.00123639 -16.1875 5.875 C-18.53366124 9.98078218 -18.41472942 13.89166199 -17.6875 18.5 C-16.45672685 21.31426975 -16.45672685 21.31426975 -13.6875 22.5 C-8.67167659 23.21119884 -4.24143707 22.85041913 0.3125 20.5 C0.9725 22.15 1.6325 23.8 2.3125 25.5 C-3.4034798 29.48418667 -8.92505694 29.53973602 -15.6875 28.5 C-20.0609605 26.23634959 -22.84985347 23.05600844 -24.6875 18.5 C-25.40034285 13.47694454 -25.25725808 9.58057568 -22.875 5.0625 C-16.65986962 -2.2180813 -9.11456044 -3.70761781 0 0 Z " fill="#121E2C" transform="translate(529.6875,238.5)"/>
<path d="M0 0 C3.40045198 0.850113 5.05309555 2.84439586 7.15625 5.5390625 C7.48625 5.8690625 7.81625 6.1990625 8.15625 6.5390625 C8.7135982 12.22401413 7.74176703 15.10989441 4.15625 19.5390625 C0.95207279 21.1411511 -2.36714432 21.03191465 -5.84375 20.5390625 C-9.28687714 18.4145798 -10.55992547 17.39053609 -11.84375 13.5390625 C-12.34401351 9.12006815 -12.11155669 7.0142034 -9.90625 3.1015625 C-6.31988219 0.10072413 -4.54926965 -0.28812041 0 0 Z " fill="#F4F5F6" transform="translate(654.84375,241.4609375)"/>
<path d="M0 0 C3.6680136 0.87048873 5.09492027 2.41972415 7.15625 5.51171875 C8.1082604 8.255086 8.46141903 10.6182642 8.15625 13.51171875 C5.29205247 18.94381752 5.29205247 18.94381752 2.15625 20.51171875 C-4.90562625 21.09056107 -4.90562625 21.09056107 -8.78125 18.69921875 C-11.42825924 15.89178471 -11.78757263 14.00795222 -12.21875 10.19921875 C-11.44793434 2.6195314 -7.29019041 -0.54676428 0 0 Z " fill="#F5F5F6" transform="translate(736.84375,241.48828125)"/>
<path d="M0 0 C8.25 0 16.5 0 25 0 C25 1.65 25 3.3 25 5 C21.7 5 18.4 5 15 5 C15 13.25 15 21.5 15 30 C13.02 30 11.04 30 9 30 C9 21.75 9 13.5 9 5 C6.03 5 3.06 5 0 5 C0 3.35 0 1.7 0 0 Z " fill="#212B38" transform="translate(424,237)"/>
<path d="M0 0 C1.98 0 3.96 0 6 0 C6 8.25 6 16.5 6 25 C10.95 25 15.9 25 21 25 C21 26.65 21 28.3 21 30 C14.07 30 7.14 30 0 30 C0 20.1 0 10.2 0 0 Z " fill="#081322" transform="translate(685,237)"/>
<path d="M0 0 C2.62595777 2.42396102 3.79859706 3.99298529 4.5 7.5 C3.79859706 11.00701471 2.62595777 12.57603898 0 15 C-4.11453459 16.27176524 -6.02851705 16.50686067 -9.875 14.5 C-12.64839572 11.23718151 -13.07481382 9.26438773 -13 5 C-9.285162 -0.89250166 -6.71655067 -1.62123637 0 0 Z " fill="#F2F2F3" transform="translate(869,287)"/>
<path d="M0 0 C0.5815662 12.10519285 0.5815662 12.10519285 -3 17 C-6.76683745 20.67025187 -9.90432172 21.31056958 -15 21.5 C-20.25353242 21.31704116 -23.25862471 20.74137529 -27 17 C-27 15.68 -27 14.36 -27 13 C-25.25 12.3125 -25.25 12.3125 -23 12 C-22.13375 12.7115625 -22.13375 12.7115625 -21.25 13.4375 C-17.93396292 15.74030353 -14.91744661 15.69321072 -11 15 C-8.19337563 13.30125367 -7.25244926 11.96686348 -6.42578125 8.80078125 C-6.10676861 7.21592643 -5.82627918 5.62269738 -5.58984375 4.0234375 C-4.7234627 1.05134887 -3.07961675 0 0 0 Z " fill="#111D2C" transform="translate(750,246)"/>
<path d="M0 0 C0.763125 0.495 1.52625 0.99 2.3125 1.5 C1.6525 2.82 0.9925 4.14 0.3125 5.5 C-0.326875 5.335 -0.96625 5.17 -1.625 5 C-5.70271365 4.33425083 -9.57986511 3.84860268 -13.6875 4.5 C-16.47225509 6.2928792 -16.47225509 6.2928792 -17.6875 9.5 C-17.9867737 12.53331647 -17.92558792 15.46437908 -17.6875 18.5 C-19.6675 19.16 -21.6475 19.82 -23.6875 20.5 C-25.05889701 16.38580897 -25.42845894 12.79340694 -24.6875 8.5 C-19.43574959 -1.55872717 -10.53632538 -4.28596287 0 0 Z " fill="#111F30" transform="translate(790.6875,238.5)"/>
<path d="M0 0 C1.98 0 3.96 0 6 0 C6 9.9 6 19.8 6 30 C4.02 30 2.04 30 0 30 C0 20.1 0 10.2 0 0 Z " fill="#1F2937" transform="translate(812,237)"/>
<path d="M0 0 C8.20815451 -0.48283262 8.20815451 -0.48283262 11.5625 1.5625 C13.56331202 4.95518126 13.55326548 7.12714161 13 11 C11.5625 13.4375 11.5625 13.4375 9 15 C5.91795892 15.32358779 3.11556103 15.1832683 0 15 C0 10.05 0 5.1 0 0 Z " fill="#F5F5F6" transform="translate(753,287)"/>
<path d="M0 0 C1.60875 -0.04125 3.2175 -0.0825 4.875 -0.125 C5.77992188 -0.14820313 6.68484375 -0.17140625 7.6171875 -0.1953125 C10 0 10 0 12 2 C12.23046875 4.78515625 12.23046875 4.78515625 12.1875 8.0625 C12.17783203 9.68865234 12.17783203 9.68865234 12.16796875 11.34765625 C12 14 12 14 11 15 C7.3308423 15.14310287 3.67284559 15.04221662 0 15 C0 10.05 0 5.1 0 0 Z " fill="#686D74" transform="translate(666,287)"/>
<path d="M0 0 C4.29 0 8.58 0 13 0 C10.56675047 2.43324953 9.72199896 2.29275548 6.375 2.5 C2.59007732 2.73879638 -0.84929527 3.45429944 -4.51513672 4.41162109 C-10.0388789 5.71956162 -15.65924103 6.59132177 -21.25 7.5625 C-23.75542617 8.00005661 -26.26064437 8.43880615 -28.765625 8.87890625 C-29.86680664 9.0704126 -30.96798828 9.26191895 -32.10253906 9.45922852 C-33.81310535 9.77848233 -35.51890001 10.13164919 -37.20556641 10.55957031 C-39.85001031 11.20862838 -42.4081135 11.17081151 -45.125 11.1875 C-46.17945313 11.20167969 -47.23390625 11.21585937 -48.3203125 11.23046875 C-51 11 -51 11 -53 9 C-48.12535646 8.1636379 -43.25068101 7.32746208 -38.37597656 6.49145508 C-36.71939236 6.20732598 -35.06281673 5.92314696 -33.40625 5.63891602 C-31.01825196 5.2291964 -28.63022267 4.81965935 -26.2421875 4.41015625 C-25.14026566 4.22103416 -25.14026566 4.22103416 -24.01608276 4.02809143 C-22.01090229 3.68434003 -20.00545904 3.34212251 -18 3 C-16.90623047 2.80792969 -15.81246094 2.61585938 -14.68554688 2.41796875 C-11.62830621 1.94215093 -8.71709252 1.90314342 -5.625 1.9375 C-4.03558594 1.95103516 -4.03558594 1.95103516 -2.4140625 1.96484375 C-1.61742187 1.97644531 -0.82078125 1.98804688 0 2 C0 1.34 0 0.68 0 0 Z " fill="#E6E8E9" transform="translate(240,290)"/>
<path d="M0 0 C2.475 0.495 2.475 0.495 5 1 C5 7.93 5 14.86 5 22 C3.35 22 1.7 22 0 22 C0 17.71 0 13.42 0 9 C-4.95 9 -9.9 9 -15 9 C-15 7.68 -15 6.36 -15 5 C-10.05 5 -5.1 5 0 5 C0 3.35 0 1.7 0 0 Z " fill="#081624" transform="translate(570,245)"/>
<path d="M0 0 C-0.33 0.99 -0.66 1.98 -1 3 C-1.64839844 3.09796875 -2.29679687 3.1959375 -2.96484375 3.296875 C-3.94582031 3.44640625 -4.92679688 3.5959375 -5.9375 3.75 C-7.10410156 3.92660156 -8.27070313 4.10320312 -9.47265625 4.28515625 C-13.04973195 4.83874139 -16.6163637 5.44489416 -20.18359375 6.05859375 C-21.2826001 6.24389648 -22.38160645 6.42919922 -23.51391602 6.62011719 C-25.72807658 6.99388846 -27.94087218 7.37585199 -30.15209961 7.76660156 C-35.70320824 8.69343423 -40.50691312 9.44595184 -46 8 C-46.33 7.34 -46.66 6.68 -47 6 C-39.38669379 4.40589361 -31.74587911 3.0832192 -24.0625 1.875 C-22.40831055 1.60236328 -22.40831055 1.60236328 -20.72070312 1.32421875 C-13.75155009 0.23053456 -7.05199262 -0.23875085 0 0 Z " fill="#E9EAEC" transform="translate(191,291)"/>
<path d="M0 0 C8.21766784 -0.36254417 8.21766784 -0.36254417 11.5625 1.1875 C13 3 13 3 13.375 5.4375 C13 8 13 8 11.875 10.0625 C11.58625 10.701875 11.2975 11.34125 11 12 C11.78309467 14.23470405 11.78309467 14.23470405 13 16 C11.125 15.6875 11.125 15.6875 9 15 C8.34 14.01 7.68 13.02 7 12 C4.94074861 11.27617533 4.94074861 11.27617533 3 11 C3 12.65 3 14.3 3 16 C2.01 16 1.02 16 0 16 C0 10.72 0 5.44 0 0 Z " fill="#696D73" transform="translate(444,286)"/>
<path d="M0 0 C3.6875 1.5 3.6875 1.5 6 3 C4.68 4.32 3.36 5.64 2 7 C1.01 6.67 0.02 6.34 -1 6 C-2.56118428 5.93259135 -4.1250252 5.91485544 -5.6875 5.9375 C-6.49574219 5.94652344 -7.30398438 5.95554688 -8.13671875 5.96484375 C-8.75160156 5.97644531 -9.36648438 5.98804688 -10 6 C-10 7.32 -10 8.64 -10 10 C-9.01 10.33 -8.02 10.66 -7 11 C-7.33 11.99 -7.66 12.98 -8 14 C-8.763125 13.835 -9.52625 13.67 -10.3125 13.5 C-13.03596236 12.90854604 -13.03596236 12.90854604 -16 13 C-17.462958 10.074084 -17.44523109 8.24382653 -17 5 C-12.30058368 -0.84251758 -7.18439631 -1.02178081 0 0 Z " fill="#182534" transform="translate(894,237)"/>
<path d="M0 0 C8.3984375 -0.1953125 8.3984375 -0.1953125 11 0 C13 2 13 2 13.25 4.375 C13 7 13 7 11.875 9.0625 C11.58625 9.701875 11.2975 10.34125 11 11 C11.78309467 13.23470405 11.78309467 13.23470405 13 15 C12.01 15 11.02 15 10 15 C9.34 13.35 8.68 11.7 8 10 C6.35 10 4.7 10 3 10 C3 11.65 3 13.3 3 15 C2.01 15 1.02 15 0 15 C0 10.05 0 5.1 0 0 Z " fill="#6E7279" transform="translate(570,287)"/>
<path d="M0 0 C8.21766784 -0.36254417 8.21766784 -0.36254417 11.5625 1.1875 C13 3 13 3 13.4375 5.5 C13 8 13 8 11.9375 9.8125 C9.00731249 11.60842137 6.3527047 11.18977574 3 11 C3 12.65 3 14.3 3 16 C2.01 16 1.02 16 0 16 C0 10.72 0 5.44 0 0 Z " fill="#6B6F76" transform="translate(425,286)"/>
<path d="M0 0 C0.99 0 1.98 0 3 0 C3 5.28 3 10.56 3 16 C2.01 16 1.02 16 0 16 C-0.33 13.69 -0.66 11.38 -1 9 C-2.32 11.31 -3.64 13.62 -5 16 C-5.66 16 -6.32 16 -7 16 C-7.99 13.69 -8.98 11.38 -10 9 C-10.33 11.31 -10.66 13.62 -11 16 C-11.99 16 -12.98 16 -14 16 C-14 11.05 -14 6.1 -14 1 C-10 2 -10 2 -8.734375 4.06640625 C-8.40953125 4.89011719 -8.0846875 5.71382813 -7.75 6.5625 C-7.41484375 7.38878906 -7.0796875 8.21507812 -6.734375 9.06640625 C-6.49203125 9.70449219 -6.2496875 10.34257812 -6 11 C-3.84733158 8.84733158 -3.06525538 7.15226256 -1.875 4.375 C-1.52179687 3.55773437 -1.16859375 2.74046875 -0.8046875 1.8984375 C-0.53914062 1.27195312 -0.27359375 0.64546875 0 0 Z " fill="#6A6F76" transform="translate(550,286)"/>
<path d="M0 0 C1.60875 -0.04125 3.2175 -0.0825 4.875 -0.125 C5.77992188 -0.14820313 6.68484375 -0.17140625 7.6171875 -0.1953125 C10 0 10 0 12 2 C12.3015491 4.86471641 12.26539226 6.51344752 10.875 9.0625 C10.58625 9.701875 10.2975 10.34125 10 11 C10.78309467 13.23470405 10.78309467 13.23470405 12 15 C11.01 15 10.02 15 9 15 C8.34 13.35 7.68 11.7 7 10 C5.35 10 3.7 10 2 10 C2 11.65 2 13.3 2 15 C1.34 15 0.68 15 0 15 C0 10.05 0 5.1 0 0 Z " fill="#5F646C" transform="translate(647,287)"/>
<path d="M0 0 C10.56 0 21.12 0 32 0 C32.66 1.32 33.32 2.64 34 4 C23.11 4 12.22 4 1 4 C0.67 2.68 0.34 1.36 0 0 Z " fill="#1434B2" transform="translate(916,250)"/>
<path d="M0 0 C0 1.32 0 2.64 0 4 C-3.20636973 4.67635064 -6.41536689 5.33932448 -9.625 6 C-10.98044922 6.28617187 -10.98044922 6.28617187 -12.36328125 6.578125 C-16.98203556 7.52210398 -21.25647172 8.25214768 -26 8 C-25.75 6.125 -25.75 6.125 -25 4 C-17.94485107 -0.43187185 -8.06354932 -0.26878498 0 0 Z " fill="#0F1B2A" transform="translate(248,293)"/>
<path d="M0 0 C10.23 0 20.46 0 31 0 C31.33 1.32 31.66 2.64 32 4 C21.44 4 10.88 4 0 4 C0 2.68 0 1.36 0 0 Z " fill="#0836BA" transform="translate(380,250)"/>
<path d="M0 0 C1.60875 -0.020625 3.2175 -0.04125 4.875 -0.0625 C5.77992188 -0.07410156 6.68484375 -0.08570313 7.6171875 -0.09765625 C10 0 10 0 12 1 C12.125 4.375 12.125 4.375 12 8 C10 10 10 10 8.0546875 10.1953125 C6.03645833 10.13020833 4.01822917 10.06510417 2 10 C2 11.65 2 13.3 2 15 C1.34 15 0.68 15 0 15 C0 10.05 0 5.1 0 0 Z " fill="#565B63" transform="translate(879,287)"/>
<path d="M0 0 C1.60875 -0.04125 3.2175 -0.0825 4.875 -0.125 C5.77992188 -0.14820313 6.68484375 -0.17140625 7.6171875 -0.1953125 C10 0 10 0 12 2 C12.35571424 4.77457104 12.36405327 6.37896796 10.9375 8.8125 C8.00731249 10.60842137 5.3527047 10.18977574 2 10 C2 11.65 2 13.3 2 15 C1.34 15 0.68 15 0 15 C0 10.05 0 5.1 0 0 Z " fill="#60656D" transform="translate(821,287)"/>
<path d="M0 0 C1.98 0 3.96 0 6 0 C6 8.25 6 16.5 6 25 C5.67 25 5.34 25 5 25 C4.67 22.03 4.34 19.06 4 16 C1.31907309 18.68092691 1.61329743 20.39167363 1.375 24.125 C1.30023437 25.22070312 1.22546875 26.31640625 1.1484375 27.4453125 C1.07496094 28.70988281 1.07496094 28.70988281 1 30 C0.67 30 0.34 30 0 30 C0 20.1 0 10.2 0 0 Z " fill="#24303F" transform="translate(685,237)"/>
<path d="M0 0 C0.99 0 1.98 0 3 0 C3 5.28 3 10.56 3 16 C2.34 16 1.68 16 1 16 C0.67 12.7 0.34 9.4 0 6 C-1.32 9.3 -2.64 12.6 -4 16 C-4.99 16 -5.98 16 -7 16 C-8.32 12.7 -9.64 9.4 -11 6 C-11.33 9.3 -11.66 12.6 -12 16 C-12.66 16 -13.32 16 -14 16 C-14 11.05 -14 6.1 -14 1 C-10 2 -10 2 -8.734375 4.06640625 C-8.40953125 4.89011719 -8.0846875 5.71382813 -7.75 6.5625 C-7.41484375 7.38878906 -7.0796875 8.21507812 -6.734375 9.06640625 C-6.49203125 9.70449219 -6.2496875 10.34257812 -6 11 C-3.13546142 7.58983503 -1.65296434 4.09305456 0 0 Z " fill="#5E646C" transform="translate(496,286)"/>
<path d="M0 0 C0.99 0 1.98 0 3 0 C3 0.66 3 1.32 3 2 C8.61 2 14.22 2 20 2 C20 3.65 20 5.3 20 7 C12.74 7 5.48 7 -2 7 C-2 2 -2 2 0 0 Z " fill="#0F1C2B" transform="translate(840,260)"/>
<path d="M0 0 C1.32 0.33 2.64 0.66 4 1 C5.484375 3.65234375 5.484375 3.65234375 6.75 6.9375 C7.17796875 8.01902344 7.6059375 9.10054688 8.046875 10.21484375 C9 13 9 13 9 15 C8.34 15 7.68 15 7 15 C7 14.01 7 13.02 7 12 C3.7 12 0.4 12 -3 12 C-3.33 12.99 -3.66 13.98 -4 15 C-4.66 14.67 -5.32 14.34 -6 14 C-4.02 9.38 -2.04 4.76 0 0 Z " fill="#686D75" transform="translate(805,287)"/>
<path d="M0 0 C2.62595777 2.42396102 3.79859706 3.99298529 4.5 7.5 C3.79859706 11.00701471 2.62595777 12.57603898 0 15 C-4.11453459 16.27176524 -6.02851705 16.50686067 -9.875 14.5 C-12.64839572 11.23718151 -13.07481382 9.26438773 -13 5 C-9.285162 -0.89250166 -6.71655067 -1.62123637 0 0 Z M-8.75 2.0625 C-10.6969885 5.08033217 -10.37456901 7.5040226 -10 11 C-8.95625978 13.04451019 -8.95625978 13.04451019 -7 14 C-4.17884512 14.42317323 -2.66049093 14.38718434 -0.1875 12.9375 C1.69021039 9.87386726 1.43729494 7.49835955 1 4 C-0.63450124 1.94054984 -0.63450124 1.94054984 -3 1 C-6.77135706 0.65401458 -6.77135706 0.65401458 -8.75 2.0625 Z " fill="#535962" transform="translate(869,287)"/>
<path d="M0 0 C0 0.66 0 1.32 0 2 C-3.51891877 2.67704411 -7.04039577 3.33974487 -10.5625 4 C-11.55314453 4.19078125 -12.54378906 4.3815625 -13.56445312 4.578125 C-26.88665254 7.05667373 -26.88665254 7.05667373 -31 5 C-31 4.34 -31 3.68 -31 3 C-20.49216319 0.6802673 -10.77408509 -0.4179602 0 0 Z " fill="#E5E7E8" transform="translate(188,301)"/>
<path d="M0 0 C0.66 0 1.32 0 2 0 C2 1.98 2 3.96 2 6 C4.64 6 7.28 6 10 6 C10 4.02 10 2.04 10 0 C10.99 0 11.98 0 13 0 C13 4.95 13 9.9 13 15 C12.01 15 11.02 15 10 15 C10 13.02 10 11.04 10 9 C7.36 9 4.72 9 2 9 C2 10.98 2 12.96 2 15 C1.34 15 0.68 15 0 15 C0 10.05 0 5.1 0 0 Z " fill="#797D83" transform="translate(714,287)"/>
<path d="M0 0 C0.33 0.66 0.66 1.32 1 2 C-1.31 2.33 -3.62 2.66 -6 3 C-6 4.65 -6 6.3 -6 8 C-9.63 8.66 -13.26 9.32 -17 10 C-17 9.01 -17 8.02 -17 7 C-19.31 6.67 -21.62 6.34 -24 6 C-24 5.67 -24 5.34 -24 5 C-20.7 4.67 -17.4 4.34 -14 4 C-13.67 3.01 -13.34 2.02 -13 1 C-8.59085217 -0.10228696 -4.51617599 -0.07654536 0 0 Z " fill="#1A293B" transform="translate(265,287)"/>
<path d="M0 0 C0.33 0 0.66 0 1 0 C1.33 5.28 1.66 10.56 2 16 C2.33 16 2.66 16 3 16 C3.02505615 16.58491211 3.0501123 17.16982422 3.07592773 17.77246094 C3.19222962 20.43184471 3.31480067 23.09090403 3.4375 25.75 C3.47681641 26.67039063 3.51613281 27.59078125 3.55664062 28.5390625 C3.59853516 29.42851562 3.64042969 30.31796875 3.68359375 31.234375 C3.72025146 32.05131836 3.75690918 32.86826172 3.79467773 33.70996094 C3.99134275 35.9034423 4.40300594 37.88396413 5 40 C3.35 40 1.7 40 0 40 C0 26.8 0 13.6 0 0 Z " fill="#0633C0" transform="translate(623,177)"/>
<path d="M0 0 C8.20815451 -0.48283262 8.20815451 -0.48283262 11.5625 1.5625 C13.56331202 4.95518126 13.55326548 7.12714161 13 11 C11.5625 13.4375 11.5625 13.4375 9 15 C5.91795892 15.32358779 3.11556103 15.1832683 0 15 C0 10.05 0 5.1 0 0 Z M2 2 C2 5.63 2 9.26 2 13 C5.41642759 13.25015873 5.41642759 13.25015873 9 13 C11.30163882 9.54754176 11.34490322 8.05261287 11 4 C9.04366025 1.58878141 9.04366025 1.58878141 5.375 1.875 C3.704375 1.936875 3.704375 1.936875 2 2 Z " fill="#5C6069" transform="translate(753,287)"/>
<path d="M0 0 C3.96 0 7.92 0 12 0 C12 0.99 12 1.98 12 3 C9.03 3 6.06 3 3 3 C3 4.32 3 5.64 3 7 C5.64 7 8.28 7 11 7 C11 7.66 11 8.32 11 9 C8.03 9 5.06 9 2 9 C2 11.31 2 13.62 2 16 C1.34 16 0.68 16 0 16 C0 10.72 0 5.44 0 0 Z " fill="#797D83" transform="translate(608,286)"/>
<path d="M0 0 C0.33 0.99 0.66 1.98 1 3 C-1.64 2.67 -4.28 2.34 -7 2 C-7 2.99 -7 3.98 -7 5 C-6.43410156 5.15855469 -5.86820313 5.31710937 -5.28515625 5.48046875 C-3.06779058 6.18581705 -1.04806871 6.89153152 1 8 C2 10.6875 2 10.6875 2 13 C0.4375 14.5625 0.4375 14.5625 -2 16 C-5.75 15.6875 -5.75 15.6875 -9 15 C-9.33 14.01 -9.66 13.02 -10 12 C-7.36 12.33 -4.72 12.66 -2 13 C-1.67 12.01 -1.34 11.02 -1 10 C-1.56589844 9.79503906 -2.13179687 9.59007812 -2.71484375 9.37890625 C-3.44832031 9.10949219 -4.18179688 8.84007812 -4.9375 8.5625 C-5.66839844 8.29566406 -6.39929688 8.02882813 -7.15234375 7.75390625 C-9 7 -9 7 -10 6 C-10.25 3.5625 -10.25 3.5625 -10 1 C-6.1496895 -1.56687367 -4.41430237 -0.83288724 0 0 Z " fill="#595D66" transform="translate(908,287)"/>
<path d="M0 0 C0 0.66 0 1.32 0 2 C0.66 2.33 1.32 2.66 2 3 C-0.54046458 3.50688605 -3.08208876 4.00566874 -5.625 4.5 C-6.33785156 4.64308594 -7.05070312 4.78617187 -7.78515625 4.93359375 C-11.92144935 5.73049426 -15.76433679 6.16034056 -20 6 C-20 5.34 -20 4.68 -20 4 C-21.98 4 -23.96 4 -26 4 C-26 3.67 -26 3.34 -26 3 C-22.79279138 2.4926043 -19.58407837 1.995421 -16.375 1.5 C-15.47136719 1.35691406 -14.56773437 1.21382813 -13.63671875 1.06640625 C-9.04560134 0.36265833 -4.66168185 -0.18584778 0 0 Z " fill="#CDCFD3" transform="translate(211,287)"/>
<path d="M0 0 C0.33 0 0.66 0 1 0 C1 7.26 1 14.52 1 22 C-0.32 22 -1.64 22 -3 22 C-3.05420701 19.43721301 -3.09377007 16.87558517 -3.125 14.3125 C-3.15013672 13.2306543 -3.15013672 13.2306543 -3.17578125 12.12695312 C-3.21386939 7.95630171 -2.92422036 4.72728611 -1 1 C-0.67 0.67 -0.34 0.34 0 0 Z " fill="#091522" transform="translate(437,245)"/>
<path d="M0 0 C3.96 0 7.92 0 12 0 C12 0.66 12 1.32 12 2 C8.7 2 5.4 2 2 2 C2 3.32 2 4.64 2 6 C4.97 6 7.94 6 11 6 C11 6.66 11 7.32 11 8 C8.03 8 5.06 8 2 8 C2 9.98 2 11.96 2 14 C4.97 14 7.94 14 11 14 C11 14.33 11 14.66 11 15 C7.37 15 3.74 15 0 15 C0 10.05 0 5.1 0 0 Z " fill="#575C64" transform="translate(464,287)"/>
<path d="M0 0 C1 3 1 3 0.0625 5.1875 C-0.4634375 6.0846875 -0.4634375 6.0846875 -1 7 C-0.34 7.33 0.32 7.66 1 8 C1.4140625 10.06640625 1.4140625 10.06640625 1.625 12.5625 C1.69976563 13.38878906 1.77453125 14.21507812 1.8515625 15.06640625 C1.90054688 15.70449219 1.94953125 16.34257812 2 17 C0.02 17.66 -1.96 18.32 -4 19 C-5.35915332 14.92254004 -5.66173293 11.25902575 -5 7 C-3.58998188 4.29335683 -1.99752595 2.34709299 0 0 Z " fill="#1F2B39" transform="translate(771,240)"/>
<path d="M0 0 C0.33 0.66 0.66 1.32 1 2 C-1.64 2 -4.28 2 -7 2 C-7 2.99 -7 3.98 -7 5 C-6.43410156 5.15855469 -5.86820313 5.31710937 -5.28515625 5.48046875 C-3.07091855 6.18482204 -1.05039882 6.90357621 1 8 C2.125 10.5625 2.125 10.5625 2 13 C0 15 0 15 -2.1640625 15.1953125 C-2.97617187 15.17210937 -3.78828125 15.14890625 -4.625 15.125 C-5.44226563 15.10695313 -6.25953125 15.08890625 -7.1015625 15.0703125 C-7.72804688 15.04710937 -8.35453125 15.02390625 -9 15 C-9.33 14.01 -9.66 13.02 -10 12 C-7.36 12.33 -4.72 12.66 -2 13 C-1.67 12.01 -1.34 11.02 -1 10 C-1.56589844 9.84144531 -2.13179687 9.68289063 -2.71484375 9.51953125 C-4.92756716 8.81565965 -6.94841871 8.09044132 -9 7 C-10.1875 4.5 -10.1875 4.5 -10 2 C-7.70875756 -2.29607958 -4.15366733 -0.99995695 0 0 Z " fill="#4F545E" transform="translate(705,287)"/>
<path d="M0 0 C0.66 0 1.32 0 2 0 C2.04898438 0.77085937 2.09796875 1.54171875 2.1484375 2.3359375 C2.22320313 3.33882813 2.29796875 4.34171875 2.375 5.375 C2.44460938 6.37273437 2.51421875 7.37046875 2.5859375 8.3984375 C2.76363964 11.15508879 2.76363964 11.15508879 5 13 C6.65 12.67 8.3 12.34 10 12 C10.33 8.04 10.66 4.08 11 0 C11.66 0 12.32 0 13 0 C13.05406122 1.93719378 13.09282025 3.87481921 13.125 5.8125 C13.14820313 6.89144531 13.17140625 7.97039062 13.1953125 9.08203125 C13 12 13 12 11 15 C8.90625 15.3984375 8.90625 15.3984375 6.5 15.375 C5.7059375 15.38273437 4.911875 15.39046875 4.09375 15.3984375 C3.4028125 15.26695312 2.711875 15.13546875 2 15 C-0.35119399 11.47320901 -0.21443452 9.97120515 -0.125 5.8125 C-0.10695313 4.72582031 -0.08890625 3.63914062 -0.0703125 2.51953125 C-0.04710937 1.68808594 -0.02390625 0.85664063 0 0 Z " fill="#4F555D" transform="translate(626,287)"/>
<path d="M0 0 C1.98 0 3.96 0 6 0 C6 2.97 6 5.94 6 9 C4.68 9 3.36 9 2 9 C1.67 10.32 1.34 11.64 1 13 C-3.95 13 -8.9 13 -14 13 C-14 12.67 -14 12.34 -14 12 C-9.38 12 -4.76 12 0 12 C0 8.04 0 4.08 0 0 Z " fill="#424E5B" transform="translate(569,237)"/>
<path d="M0 0 C0.66 0 1.32 0 2 0 C2.33 3.96 2.66 7.92 3 12 C4.9914056 12.38133299 6.99279077 12.71325582 9 13 C10.81115956 11.18884044 10.38199448 8.38721773 10.5625 5.9375 C10.64628906 4.83277344 10.73007812 3.72804688 10.81640625 2.58984375 C10.87699219 1.73519531 10.93757812 0.88054687 11 0 C11.66 0 12.32 0 13 0 C13.05406122 1.93719378 13.09282025 3.87481921 13.125 5.8125 C13.14820313 6.89144531 13.17140625 7.97039062 13.1953125 9.08203125 C13 12 13 12 11 15 C8.90625 15.3984375 8.90625 15.3984375 6.5 15.375 C5.7059375 15.38273437 4.911875 15.39046875 4.09375 15.3984375 C3.4028125 15.26695312 2.711875 15.13546875 2 15 C-0.35119399 11.47320901 -0.21443452 9.97120515 -0.125 5.8125 C-0.10695313 4.72582031 -0.08890625 3.63914062 -0.0703125 2.51953125 C-0.04710937 1.68808594 -0.02390625 0.85664063 0 0 Z " fill="#4D535C" transform="translate(516,287)"/>
<path d="M0 0 C3.63 0 7.26 0 11 0 C11 0.33 11 0.66 11 1 C8.03 1 5.06 1 2 1 C2 2.65 2 4.3 2 6 C4.97 6 7.94 6 11 6 C11 6.66 11 7.32 11 8 C8.03 8 5.06 8 2 8 C2 9.98 2 11.96 2 14 C4.97 14 7.94 14 11 14 C11 14.33 11 14.66 11 15 C7.37 15 3.74 15 0 15 C0 10.05 0 5.1 0 0 Z " fill="#494E56" transform="translate(590,287)"/>
<path d="M0 0 C-7.93292062 4.50511541 -18.03746309 5.4635795 -27 5 C-27.33 4.34 -27.66 3.68 -28 3 C-18.4823267 0.78842446 -9.82252062 -0.44723112 0 0 Z " fill="#E3E4E6" transform="translate(309,287)"/>
<path d="M0 0 C0 0.66 0 1.32 0 2 C-12.48519362 5.44419134 -12.48519362 5.44419134 -19 5 C-19.33 4.01 -19.66 3.02 -20 2 C-13.25846717 0.74158054 -6.86515862 -0.26404456 0 0 Z " fill="#E6E7E9" transform="translate(248,298)"/>
<path d="M0 0 C6.93 0 13.86 0 21 0 C21 0.99 21 1.98 21 3 C18.24993392 3.0270203 15.50013454 3.04684883 12.75 3.0625 C11.97269531 3.07087891 11.19539062 3.07925781 10.39453125 3.08789062 C9.26337891 3.09272461 9.26337891 3.09272461 8.109375 3.09765625 C7.07248535 3.10551147 7.07248535 3.10551147 6.01464844 3.11352539 C3.90026102 2.99437971 2.03358485 2.57618237 0 2 C0 1.34 0 0.68 0 0 Z " fill="#0D1D2D" transform="translate(838,238)"/>
<path d="M0 0 C4.29 0 8.58 0 13 0 C10.56675047 2.43324953 9.72199896 2.29275548 6.375 2.5 C3.10350692 2.75273337 0.19316715 3.15274312 -2.9375 4.125 C-7.96265012 5.52832734 -12.90274427 4.6933767 -18 4 C-18 3.67 -18 3.34 -18 3 C-12.03325384 1.67405641 -6.07416385 1.9115413 0 2 C0 1.34 0 0.68 0 0 Z " fill="#D3D5D8" transform="translate(240,290)"/>
<path d="M0 0 C3.375 -0.125 3.375 -0.125 7 0 C7.66 0.66 8.32 1.32 9 2 C8.46428571 5.53571429 8.46428571 5.53571429 7 7 C4.66702567 7.04092937 2.33294775 7.04241723 0 7 C0 4.69 0 2.38 0 0 Z " fill="#DEE0E1" transform="translate(446,288)"/>
<path d="M0 0 C3.63 0 7.26 0 11 0 C11 0.33 11 0.66 11 1 C8.03 1 5.06 1 2 1 C2 2.98 2 4.96 2 7 C4.64 7 7.28 7 10 7 C10 7.33 10 7.66 10 8 C7.36 8 4.72 8 2 8 C2 9.98 2 11.96 2 14 C4.97 14 7.94 14 11 14 C11 14.33 11 14.66 11 15 C7.37 15 3.74 15 0 15 C0 10.05 0 5.1 0 0 Z " fill="#3F454E" transform="translate(734,287)"/>
<path d="M0 0 C1.32 0 2.64 0 4 0 C4 4.62 4 9.24 4 14 C2.68 14 1.36 14 0 14 C0 9.38 0 4.76 0 0 Z " fill="#091522" transform="translate(595,253)"/>
<path d="M0 0 C4 1 4 1 5.30078125 2.9609375 C5.63464844 3.75757813 5.96851563 4.55421875 6.3125 5.375 C6.65925781 6.16648437 7.00601562 6.95796875 7.36328125 7.7734375 C8 10 8 10 7 13 C5.68 10.36 4.36 7.72 3 5 C2.67 8.3 2.34 11.6 2 15 C1.34 15 0.68 15 0 15 C0 10.05 0 5.1 0 0 Z " fill="#5E636A" transform="translate(482,287)"/>
<path d="M0 0 C1.89492188 0.01353516 1.89492188 0.01353516 3.828125 0.02734375 C4.79234375 0.03894531 5.7565625 0.05054688 6.75 0.0625 C6.75 0.7225 6.75 1.3825 6.75 2.0625 C-0.86540316 3.6457711 -7.54814525 4.32342312 -15.25 3.0625 C-10.0197033 0.26055534 -5.94666048 -0.05506167 0 0 Z " fill="#C4C7CA" transform="translate(263.25,278.9375)"/>
<path d="M0 0 C0.99 0 1.98 0 3 0 C6 3.33333333 6 3.33333333 6 6 C6.66 6.33 7.32 6.66 8 7 C6.68 8.65 5.36 10.3 4 12 C2.02 9.36 0.04 6.72 -2 4 C-1.34 2.68 -0.68 1.36 0 0 Z " fill="#111B28" transform="translate(607,250)"/>
<path d="M0 0 C4.62 0 9.24 0 14 0 C14 1.32 14 2.64 14 4 C9.38 4 4.76 4 0 4 C0 2.68 0 1.36 0 0 Z " fill="#0C1B2B" transform="translate(692,263)"/>
<path d="M0 0 C4.62 0 9.24 0 14 0 C13.67 1.32 13.34 2.64 13 4 C8.71 4 4.42 4 0 4 C0 2.68 0 1.36 0 0 Z " fill="#0C71F7" transform="translate(380,250)"/>
<path d="M0 0 C0.99 0 1.98 0 3 0 C3 0.66 3 1.32 3 2 C8.28 2 13.56 2 19 2 C19 2.33 19 2.66 19 3 C15.04 3 11.08 3 7 3 C7 3.99 7 4.98 7 6 C4.03 6 1.06 6 -2 6 C-1.125 1.125 -1.125 1.125 0 0 Z " fill="#060E1A" transform="translate(840,260)"/>
<path d="M0 0 C2.97 0 5.94 0 9 0 C9 0.33 9 0.66 9 1 C6.69 1 4.38 1 2 1 C2 2.98 2 4.96 2 7 C3.98 7 5.96 7 8 7 C8 7.33 8 7.66 8 8 C6.02 8 4.04 8 2 8 C2 9.98 2 11.96 2 14 C4.31 14 6.62 14 9 14 C9 14.33 9 14.66 9 15 C6.03 15 3.06 15 0 15 C0 10.05 0 5.1 0 0 Z " fill="#40444D" transform="translate(666,287)"/>
<path d="M0 0 C-0.33 0.66 -0.66 1.32 -1 2 C-6.48695409 3.70284782 -12.27924819 4.47672932 -18 4 C-18.66 3.34 -19.32 2.68 -20 2 C-13.1834265 0.2120463 -7.03482474 -0.23668569 0 0 Z " fill="#DFE0E3" transform="translate(289,283)"/>
<path d="M0 0 C0.66 0 1.32 0 2 0 C2 5.28 2 10.56 2 16 C1.01 16 0.02 16 -1 16 C-1.02685095 13.52076199 -1.04676547 11.0418116 -1.0625 8.5625 C-1.07506836 7.50192383 -1.07506836 7.50192383 -1.08789062 6.41992188 C-1.09653588 4.61306441 -1.05220011 2.80612397 -1 1 C-0.67 0.67 -0.34 0.34 0 0 Z " fill="#7A7E85" transform="translate(686,286)"/>
<path d="M0 0 C1.51400391 0.01740234 1.51400391 0.01740234 3.05859375 0.03515625 C4.07050781 0.04417969 5.08242187 0.05320312 6.125 0.0625 C7.29869141 0.07990234 7.29869141 0.07990234 8.49609375 0.09765625 C8.16609375 1.08765625 7.83609375 2.07765625 7.49609375 3.09765625 C4.87159289 3.31885564 2.24738889 3.52512294 -0.37890625 3.72265625 C-1.12527344 3.78710938 -1.87164062 3.8515625 -2.640625 3.91796875 C-4.59091095 4.0585299 -6.54860092 4.08525474 -8.50390625 4.09765625 C-9.16390625 3.43765625 -9.82390625 2.77765625 -10.50390625 2.09765625 C-9.36953125 1.95328125 -8.23515625 1.80890625 -7.06640625 1.66015625 C-3.7864409 1.14226698 -3.04517779 0.11876668 0 0 Z " fill="#EEEFF0" transform="translate(182.50390625,290.90234375)"/>
<path d="M0 0 C2.64 0 5.28 0 8 0 C8.042721 1.66611905 8.04063832 3.33382885 8 5 C7 6 7 6 3.4375 6.0625 C2.303125 6.041875 1.16875 6.02125 0 6 C0 4.02 0 2.04 0 0 Z " fill="#EEEFEF" transform="translate(881,289)"/>
<path d="M0 0 C1.828125 0.12890625 1.828125 0.12890625 4 1 C5.484375 3.65234375 5.484375 3.65234375 6.75 6.9375 C7.17796875 8.01902344 7.6059375 9.10054688 8.046875 10.21484375 C9 13 9 13 9 15 C8.34 15 7.68 15 7 15 C6.67 14.01 6.34 13.02 6 12 C3.69 11.67 1.38 11.34 -1 11 C-1 10.67 -1 10.34 -1 10 C0.98 10 2.96 10 5 10 C3.515 7.03 3.515 7.03 2 4 C1.01 4.66 0.02 5.32 -1 6 C-0.67 4.02 -0.34 2.04 0 0 Z " fill="#555A62" transform="translate(805,287)"/>
<path d="M0 0 C0.33 0 0.66 0 1 0 C1.12375 0.804375 1.2475 1.60875 1.375 2.4375 C1.58125 3.283125 1.7875 4.12875 2 5 C2.66 5.33 3.32 5.66 4 6 C4.66 5.34 5.32 4.68 6 4 C6.33 6.64 6.66 9.28 7 12 C5.35 12.33 3.7 12.66 2 13 C0.21590198 9.93753253 -0.22880021 7.77920727 -0.125 4.25 C-0.10695313 3.45078125 -0.08890625 2.6515625 -0.0703125 1.828125 C-0.04710937 1.22484375 -0.02390625 0.6215625 0 0 Z " fill="#232E3D" transform="translate(719,247)"/>
<path d="M0 0 C3.96 0 7.92 0 12 0 C12 0.66 12 1.32 12 2 C10.35 2 8.7 2 7 2 C7 6.29 7 10.58 7 15 C6.34 15 5.68 15 5 15 C5 10.38 5 5.76 5 1 C3.35 1 1.7 1 0 1 C0 0.67 0 0.34 0 0 Z " fill="#575D65" transform="translate(839,287)"/>
<path d="M0 0 C0.33 1.32 0.66 2.64 1 4 C-2.21451269 5.60725635 -5.43612536 5.05748185 -9 5 C-9 3.68 -9 2.36 -9 1 C-5.8035914 -0.06546953 -3.34252724 -0.07427838 0 0 Z " fill="#0C1623" transform="translate(268,289)"/>
<path d="M0 0 C2.31 0 4.62 0 7 0 C7.625 1.875 7.625 1.875 8 4 C6 6 6 6 2.875 6.125 C1.451875 6.063125 1.451875 6.063125 0 6 C0 4.02 0 2.04 0 0 Z " fill="#F0F0F1" transform="translate(823,289)"/>
<path d="M0 0 C2.31 0 4.62 0 7 0 C7.625 1.875 7.625 1.875 8 4 C6 6 6 6 2.875 6.125 C1.451875 6.063125 1.451875 6.063125 0 6 C0 4.02 0 2.04 0 0 Z " fill="#EDEEEF" transform="translate(428,289)"/>
<path d="M0 0 C3.63 0 7.26 0 11 0 C11.66 1.32 12.32 2.64 13 4 C9.04 4 5.08 4 1 4 C0.67 2.68 0.34 1.36 0 0 Z " fill="#075FEC" transform="translate(937,250)"/>
<path d="M0 0 C0 1.32 0 2.64 0 4 C-4.29 4 -8.58 4 -13 4 C-7.22734532 -0.61812374 -6.70500417 -0.45457655 0 0 Z " fill="#051321" transform="translate(486,250)"/>
<path d="M0 0 C2.31 0 4.62 0 7 0 C7.33 1.65 7.66 3.3 8 5 C5.36 5 2.72 5 0 5 C0 3.35 0 1.7 0 0 Z " fill="#F2F3F3" transform="translate(668,295)"/>
<path d="M0 0 C2.31 0 4.62 0 7 0 C7.5625 1.9375 7.5625 1.9375 8 4 C7 5 7 5 3.4375 5.0625 C2.303125 5.041875 1.16875 5.02125 0 5 C0 3.35 0 1.7 0 0 Z " fill="#F6F7F7" transform="translate(649,289)"/>
<path d="M0 0 C2.31 0 4.62 0 7 0 C7.5625 1.9375 7.5625 1.9375 8 4 C7 5 7 5 3.4375 5.0625 C2.303125 5.041875 1.16875 5.02125 0 5 C0 3.35 0 1.7 0 0 Z " fill="#F8F8F8" transform="translate(573,289)"/>
<path d="M0 0 C0.66 0.99 1.32 1.98 2 3 C1 4 1 4 -1.28515625 4.09765625 C-2.65994141 4.08025391 -2.65994141 4.08025391 -4.0625 4.0625 C-4.98160156 4.05347656 -5.90070312 4.04445312 -6.84765625 4.03515625 C-7.55792969 4.02355469 -8.26820313 4.01195312 -9 4 C-9 3.01 -9 2.02 -9 1 C-5.95699684 -0.52150158 -3.345915 -0.23899393 0 0 Z " fill="#064AD2" transform="translate(937,250)"/>
<path d="M0 0 C0 0.33 0 0.66 0 1 C-1.65 1.33 -3.3 1.66 -5 2 C-4.01 2.66 -3.02 3.32 -2 4 C-3.43410368 4.24954005 -4.87260072 4.47392642 -6.3125 4.6875 C-7.11300781 4.81511719 -7.91351563 4.94273437 -8.73828125 5.07421875 C-11 5 -11 5 -12.79296875 3.51953125 C-13.19128906 3.01808594 -13.58960938 2.51664062 -14 2 C-9.07262981 0.02905192 -5.21979128 -0.1799928 0 0 Z " fill="#CCCFD2" transform="translate(179,292)"/>
<path d="M0 0 C0.99 0 1.98 0 3 0 C3 5.28 3 10.56 3 16 C2.34 16 1.68 16 1 16 C0.67 10.72 0.34 5.44 0 0 Z " fill="#5F646B" transform="translate(550,286)"/>
<path d="M0 0 C4.12796115 0.2381516 6.34632633 0.39660892 9.4375 3.25 C11.10291199 6.1811251 11.37775893 7.6946094 11 11 C10.01 10.67 9.02 10.34 8 10 C7.731875 9.030625 7.46375 8.06125 7.1875 7.0625 C6.795625 6.051875 6.40375 5.04125 6 4 C2.98220128 2.54839062 2.98220128 2.54839062 0 2 C0 1.34 0 0.68 0 0 Z " fill="#6A6F76" transform="translate(862,286)"/>
<path d="M0 0 C4.95 0 9.9 0 15 0 C15 0.66 15 1.32 15 2 C10.9472484 2.98248524 7.16138263 3.08159574 3 3 C3 2.34 3 1.68 3 1 C2.01 0.67 1.02 0.34 0 0 Z " fill="#C8CBCF" transform="translate(232,283)"/>
<path d="M0 0 C0.66 0 1.32 0 2 0 C2 4.95 2 9.9 2 15 C1.34 15 0.68 15 0 15 C0 12.69 0 10.38 0 8 C-0.99 7.67 -1.98 7.34 -3 7 C-2.01 7 -1.02 7 0 7 C0 4.69 0 2.38 0 0 Z " fill="#545860" transform="translate(725,287)"/>
<path d="M0 0 C0.99 0.33 1.98 0.66 3 1 C3.6875 3.0625 3.6875 3.0625 4 5 C2.35 5.66 0.7 6.32 -1 7 C-1.66 5.35 -2.32 3.7 -3 2 C-2.01 1.34 -1.02 0.68 0 0 Z " fill="#0D1825" transform="translate(771,256)"/>
<path d="M0 0 C-0.4640625 0.7734375 -0.4640625 0.7734375 -0.9375 1.5625 C-2.18828017 4.1293925 -2.18828017 4.1293925 -2.5 7.6875 C-2.665 8.780625 -2.83 9.87375 -3 11 C-3.99 11.495 -3.99 11.495 -5 12 C-6.46842878 5.75917768 -6.46842878 5.75917768 -4.1875 2.0625 C-2 0 -2 0 0 0 Z " fill="#5A6068" transform="translate(862,287)"/>
<path d="M0 0 C2.31 0 4.62 0 7 0 C7 1.32 7 2.64 7 4 C4.69 4 2.38 4 0 4 C0 2.68 0 1.36 0 0 Z " fill="#F5F6F6" transform="translate(668,289)"/>
<path d="M0 0 C0.66 1.65 1.32 3.3 2 5 C0.35 5.66 -1.3 6.32 -3 7 C-3.66 5.35 -4.32 3.7 -5 2 C-2 0 -2 0 0 0 Z " fill="#1B293B" transform="translate(530,259)"/>
<path d="M0 0 C0.33 0.66 0.66 1.32 1 2 C-2.9813783 3.3271261 -6.85045227 3.06915913 -11 3 C-11.33 2.34 -11.66 1.68 -12 1 C-8.0186217 -0.3271261 -4.14954773 -0.06915913 0 0 Z " fill="#CFD1D3" transform="translate(265,287)"/>
<path d="M0 0 C2.875 -0.125 2.875 -0.125 6 0 C6.66 0.66 7.32 1.32 8 2 C6 4 6 4 2.375 4.125 C1.26125 4.08375 0.1475 4.0425 -1 4 C-0.67 2.68 -0.34 1.36 0 0 Z " fill="#0646CC" transform="translate(394,250)"/>
<path d="M0 0 C0.99386719 0.02707031 1.98773438 0.05414063 3.01171875 0.08203125 C4.15060547 0.13423828 4.15060547 0.13423828 5.3125 0.1875 C2.63157309 2.86842691 0.92082637 2.57420257 -2.8125 2.8125 C-3.90820312 2.88726562 -5.00390625 2.96203125 -6.1328125 3.0390625 C-6.97585938 3.08804687 -7.81890625 3.13703125 -8.6875 3.1875 C-6.10291354 -0.17334451 -4.11082043 -0.14508778 0 0 Z " fill="#ECECED" transform="translate(272.6875,292.8125)"/>
<path d="M0 0 C2.50037734 2.17424117 3.43628586 3.73045798 4 7 C2.02 7 0.04 7 -2 7 C-1.125 1.125 -1.125 1.125 0 0 Z " fill="#DADBDC" transform="translate(806,290)"/>
<path d="M0 0 C2.475 0.99 2.475 0.99 5 2 C4.34 3.32 3.68 4.64 3 6 C0 6 0 6 -3 4 C-2.34 4 -1.68 4 -1 4 C-0.67 2.68 -0.34 1.36 0 0 Z " fill="#233143" transform="translate(527,238)"/>
<path d="M0 0 C-4.455 0.495 -4.455 0.495 -9 1 C-9 0.34 -9 -0.32 -9 -1 C-10.32 -1.33 -11.64 -1.66 -13 -2 C-7.41194975 -3.14301028 -4.75621128 -3.17080752 0 0 Z " fill="#D5D7DA" transform="translate(220,306)"/>
<path d="M0 0 C1.62463842 -0.05395478 3.24978541 -0.09277195 4.875 -0.125 C5.77992188 -0.14820313 6.68484375 -0.17140625 7.6171875 -0.1953125 C10 0 10 0 12 2 C12.125 4.625 12.125 4.625 12 7 C11.01 7.495 11.01 7.495 10 8 C9.34 6.02 8.68 4.04 8 2 C5.69 1.67 3.38 1.34 1 1 C0.67 1.66 0.34 2.32 0 3 C0 2.01 0 1.02 0 0 Z " fill="#454A54" transform="translate(821,287)"/>
<path d="M0 0 C1.3921875 0.2784375 1.3921875 0.2784375 2.8125 0.5625 C3.534375 0.706875 4.25625 0.85125 5 1 C5 1.33 5 1.66 5 2 C3.04196493 2.05389087 1.08351091 2.09274217 -0.875 2.125 C-1.96554688 2.14820313 -3.05609375 2.17140625 -4.1796875 2.1953125 C-7 2 -7 2 -9 0 C-5.63652064 -1.12115979 -3.41633299 -0.83325195 0 0 Z " fill="#D5D7DA" transform="translate(196,299)"/>
<path d="M0 0 C3.32637022 2.69277589 4.58473125 6.03724749 6 10 C5.67 10.99 5.34 11.98 5 13 C4.15615325 11.58957044 3.32530504 10.17135868 2.5 8.75 C2.0359375 7.96109375 1.571875 7.1721875 1.09375 6.359375 C0 4 0 4 0 0 Z " fill="#50555E" transform="translate(484,287)"/>
<path d="M0 0 C0 0.66 0 1.32 0 2 C-4.3164922 2.76173392 -7.74433453 3.16063604 -12 2 C-8.09971775 -0.60018816 -4.52565431 -0.15085514 0 0 Z " fill="#D5D7D8" transform="translate(260,280)"/>
<path d="M0 0 C2.31 0 4.62 0 7 0 C7 1.32 7 2.64 7 4 C4.69 4 2.38 4 0 4 C0 2.66666667 0 1.33333333 0 0 Z " fill="#050D19" transform="translate(481,262)"/>
<path d="M0 0 C0.33 0.99 0.66 1.98 1 3 C-0.98567708 2.70703125 -2.97135417 2.4140625 -4.95703125 2.12109375 C-7.2025342 1.86095201 -7.2025342 1.86095201 -10 3 C-9.67 2.01 -9.34 1.02 -9 0 C-5.93109813 -1.53445094 -3.29905734 -0.54984289 0 0 Z " fill="#5E6269" transform="translate(908,287)"/>
<path d="M0 0 C2.97 0 5.94 0 9 0 C8.01 1.485 8.01 1.485 7 3 C3.375 3.1875 3.375 3.1875 0 3 C0 2.01 0 1.02 0 0 Z " fill="#0C1D2F" transform="translate(424,238)"/>
<path d="M0 0 C3.63 0 7.26 0 11 0 C10.67 0.66 10.34 1.32 10 2 C7.35139573 2.59355614 4.70802678 2.74209269 2 3 C2 2.34 2 1.68 2 1 C1.34 0.67 0.68 0.34 0 0 Z " fill="#CBCED1" transform="translate(278,283)"/>
<path d="M0 0 C0.33 0.66 0.66 1.32 1 2 C1.66 2.33 2.32 2.66 3 3 C1.68 4.65 0.36 6.3 -1 8 C-1.99 6.35 -2.98 4.7 -4 3 C-2.68 2.01 -1.36 1.02 0 0 Z " fill="#152233" transform="translate(612,254)"/>
<path d="M0 0 C0.33 0.66 0.66 1.32 1 2 C2.32 1.67 3.64 1.34 5 1 C4.67 2.98 4.34 4.96 4 7 C2.68 6.34 1.36 5.68 0 5 C0 3.35 0 1.7 0 0 Z " fill="#081320" transform="translate(720,247)"/>
<path d="M0 0 C2.89932357 2.39509338 3.50168276 4.31245243 4 8 C3.34 8 2.68 8 2 8 C1.67 7.01 1.34 6.02 1 5 C-1.31 4.67 -3.62 4.34 -6 4 C-6 3.67 -6 3.34 -6 3 C-4.02 3 -2.04 3 0 3 C0 2.01 0 1.02 0 0 Z " fill="#454B54" transform="translate(810,294)"/>
<path d="M0 0 C1.98 0.99 1.98 0.99 4 2 C4.1875 4.375 4.1875 4.375 4 7 C3.01 7.66 2.02 8.32 1 9 C1 8.01 1 7.02 1 6 C0.68578929 3.99690671 0.3548954 1.99628664 0 0 Z " fill="#5B5F68" transform="translate(453,287)"/>
<path d="M0 0 C2.97 0 5.94 0 9 0 C9 0.66 9 1.32 9 2 C6.36 2.33 3.72 2.66 1 3 C0.67 2.01 0.34 1.02 0 0 Z " fill="#CCCED2" transform="translate(179,301)"/>
<path d="M0 0 C0.33 0 0.66 0 1 0 C1 2.31 1 4.62 1 7 C0.01 7.33 -0.98 7.66 -2 8 C-2.33 7.01 -2.66 6.02 -3 5 C-1.625 2.3125 -1.625 2.3125 0 0 Z " fill="#F3F3F4" transform="translate(549,294)"/>
<path d="M0 0 C1.485 0.99 1.485 0.99 3 2 C3.375 4.5 3.375 4.5 3 7 C2.01 7.66 1.02 8.32 0 9 C0 8.01 0 7.02 0 6 C-0.185625 5.13375 -0.37125 4.2675 -0.5625 3.375 C-0.706875 2.59125 -0.85125 1.8075 -1 1 C-0.67 0.67 -0.34 0.34 0 0 Z " fill="#575C65" transform="translate(580,287)"/>
<path d="M0 0 C0.99 0.33 1.98 0.66 3 1 C2.34 2.32 1.68 3.64 1 5 C-0.65 4.67 -2.3 4.34 -4 4 C-2.68 2.68 -1.36 1.36 0 0 Z " fill="#202A37" transform="translate(790,239)"/>
<path d="M0 0 C2.625 0.9375 2.625 0.9375 5 2 C1.91190305 3.76462683 0.76687864 4 -3 4 C-2.67 3.01 -2.34 2.02 -2 1 C-1.34 0.67 -0.68 0.34 0 0 Z " fill="#C3C6CB" transform="translate(195,307)"/>
<path d="M0 0 C0.66 0.99 1.32 1.98 2 3 C1.375 5.625 1.375 5.625 0 8 C-2.125 8.8125 -2.125 8.8125 -4 9 C-4 8.34 -4 7.68 -4 7 C-3.525625 6.54625 -3.05125 6.0925 -2.5625 5.625 C-0.77906263 3.77022513 -0.4308007 2.49864408 0 0 Z " fill="#545A63" transform="translate(764,293)"/>
<path d="M0 0 C0 1.32 0 2.64 0 4 C-0.66 4 -1.32 4 -2 4 C-2.33 3.01 -2.66 2.02 -3 1 C-5.31 0.67 -7.62 0.34 -10 0 C-10 -0.33 -10 -0.66 -10 -1 C-3.375 -2.25 -3.375 -2.25 0 0 Z " fill="#6E737A" transform="translate(678,289)"/>
<path d="M0 0 C1.65 0 3.3 0 5 0 C5.66 1.32 6.32 2.64 7 4 C5.02 4 3.04 4 1 4 C1.33 3.01 1.66 2.02 2 1 C1.34 0.67 0.68 0.34 0 0 Z " fill="#1873F6" transform="translate(943,250)"/>
<path d="M0 0 C0 0.66 0 1.32 0 2 C0.66 2.66 1.32 3.32 2 4 C-0.3431213 3.74438677 -2.67843403 3.40729228 -5 3 C-5.33 2.34 -5.66 1.68 -6 1 C-4 0 -4 0 0 0 Z " fill="#C5C8CC" transform="translate(150,296)"/>
<path d="M0 0 C1.98 0 3.96 0 6 0 C5.01 0.495 5.01 0.495 4 1 C4 1.99 4 2.98 4 4 C2.68 4 1.36 4 0 4 C0 2.68 0 1.36 0 0 Z " fill="#0A3AC2" transform="translate(924,250)"/>
<path d="M0 0 C3.73487777 0.4979837 5.81237635 0.87491756 9 3 C2.25 3.125 2.25 3.125 0 2 C0 1.34 0 0.68 0 0 Z " fill="#DADCDE" transform="translate(157,304)"/>
<path d="M0 0 C1.65 0 3.3 0 5 0 C4.67 1.32 4.34 2.64 4 4 C2.68 4 1.36 4 0 4 C0 2.68 0 1.36 0 0 Z " fill="#095EED" transform="translate(389,250)"/>
<path d="M0 0 C2.31 0 4.62 0 7 0 C7.33 1.32 7.66 2.64 8 4 C6.68 3.67 5.36 3.34 4 3 C4.33 2.34 4.66 1.68 5 1 C3.35 1 1.7 1 0 1 C0 0.67 0 0.34 0 0 Z " fill="#0F2EB3" transform="translate(404,250)"/>
<path d="M0 0 C1.65 0 3.3 0 5 0 C5.33 0.66 5.66 1.32 6 2 C1.545 2.495 1.545 2.495 -3 3 C-2.01 2.67 -1.02 2.34 0 2 C0 1.34 0 0.68 0 0 Z " fill="#0630B4" transform="translate(292,196)"/>
<path d="M0 0 C0.66 0 1.32 0 2 0 C1.625 2.9375 1.625 2.9375 1 6 C0.01 6.495 0.01 6.495 -1 7 C-1.625 5.1875 -1.625 5.1875 -2 3 C-1.34 2.01 -0.68 1.02 0 0 Z " fill="#0B49C9" transform="translate(747,170)"/>
</svg>
